<svg xmlns="http://www.w3.org/2000/svg" width="1000" height="207.003" viewBox="0 0 100 20.7">
  <defs/>
  <path d="M15.81 1.644c0 .904.738 1.645 1.626 1.645.924 0 1.662-.74 1.662-1.645A1.65 1.65 0 0017.436 0c-.888 0-1.626.738-1.626 1.643m3.4 3.172H15.7V16.29h3.51zM92.934 20.7L100 4.816h-3.717l-2.54 6.141-2.794-6.141h-3.924l4.824 9.926-2.608 5.958zM86.54 4.816a3.426 3.426 0 00-.924-.116c-.922 0-2.379.369-2.977 1.662V4.816h-3.396V16.29h3.512v-5.01c0-2.287 1.269-3.117 2.677-3.117.345 0 .717.022 1.108.113zM69.939 9.179c.067-.856.808-1.939 2.284-1.939 1.664 0 2.265 1.061 2.311 1.94zm4.848 2.977c-.323.902-1.04 1.5-2.308 1.5-1.363 0-2.54-.92-2.61-2.214h7.989c.024-.07.07-.6.07-1.085 0-3.693-2.195-5.889-5.75-5.889-2.98 0-5.727 2.355-5.727 6.05 0 3.855 2.817 6.118 5.982 6.118 2.909 0 4.733-1.662 5.288-3.648zm-7.9-7.34h-3.693l-2.448 7.133-2.656-7.133h-3.81l4.71 11.475h3.533zm-18.125 8.587c-1.318 0-2.589-.945-2.589-2.863 0-1.937 1.271-2.84 2.589-2.84 1.338 0 2.585.903 2.585 2.84 0 1.94-1.247 2.863-2.585 2.863m0-8.935c-3.419 0-6.099 2.516-6.099 6.072s2.68 6.096 6.099 6.096c3.44 0 6.095-2.54 6.095-6.096s-2.656-6.072-6.095-6.072m-12.19 3.233c1.361 0 2.056.832 2.309 1.708l3.14-.946c-.508-2.055-2.356-3.995-5.518-3.995-3.373 0-6.05 2.516-6.05 6.096 0 3.556 2.747 6.072 6.165 6.072 3.071 0 4.965-1.986 5.474-3.995l-3.095-.946c-.253.854-1.016 1.708-2.379 1.708-1.454 0-2.68-1.015-2.68-2.839 0-1.848 1.18-2.863 2.635-2.863m-16.346 5.333c.092 1.27 1.247 3.602 4.849 3.602 3.07 0 4.571-1.916 4.571-3.88 0-1.685-1.153-3.116-3.532-3.6l-1.524-.3c-.51-.094-.9-.369-.9-.854 0-.6.577-.994 1.247-.994 1.062 0 1.547.647 1.638 1.41l2.912-.531c-.116-1.34-1.271-3.419-4.596-3.419-2.564 0-4.412 1.708-4.412 3.81 0 1.615.97 3.003 3.419 3.533l1.314.3c.857.185 1.134.53 1.134.947 0 .507-.439.992-1.341.992-1.2 0-1.754-.762-1.8-1.546zM4.64 8.79c0 .033.007.07.017.085.01.013.02.038.023.052.003.016.012.028.018.027.015 0 .013-.015-.012-.06a.235.235 0 01-.023-.084c-.004-.074-.023-.09-.023-.02m-.146-2.16c-.019 0-.036.004-.039.012-.002.008.01.013.03.014.018 0 .035-.006.038-.012.002-.008-.009-.013-.03-.014m.02-.866c.03-.002.025-.03-.008-.052-.035-.025-.035-.025-.04-.007-.006.021.026.06.047.059m.111-.037c.003-.005-.004-.024-.014-.042-.01-.018-.018-.024-.017-.014.002.009-.002.014-.01.008-.02-.012-.01.012.014.037.012.011.024.017.027.011m.809.78c.005-.017.004-.026-.007-.04-.012-.016-.013-.024-.01-.039.004-.016.001-.019-.016-.019-.033 0-.057.043-.048.088.007.027.014.034.056.046.024.008.032.007.025-.004a.046.046 0 010-.033m-.699 1.999c.01-.012.014-.024.011-.027-.003-.003-.013.002-.022.014-.008.012-.014.024-.01.027.003.004.012-.002.021-.014m.542-1.784c.002-.007-.003-.012-.01-.012-.008 0-.014-.01-.016-.024 0-.014.004-.021.014-.018a.03.03 0 00.025-.002c.007-.005.005-.012-.013-.035-.02-.025-.026-.027-.036-.014-.011.015-.013.013-.014-.011 0-.016-.004-.028-.008-.028a.232.232 0 01-.046-.047c-.02-.027-.032-.046-.026-.046.006 0 .014-.007.017-.018.003-.01.012-.016.02-.012.015.002.021-.015.015-.046-.01-.04-.058-.04-.104-.001-.05.043-.058.066-.034.108a.41.41 0 00.063.105l.04.054-.007.042a.151.151 0 00.002.065c.018.045.111.086.144.064.012-.009-.001-.09-.018-.103a.025.025 0 01-.008-.021m-.608.006c-.005 0-.006.006-.002.013.003.007.008.014.011.014.002 0 .004-.007.002-.013 0-.008-.006-.014-.011-.014m.043-.875a.062.062 0 00-.02-.026c-.013-.01-.016-.01-.013.002.008.03.037.05.033.024m.302.174c.007-.01.008-.021.006-.025-.003-.004-.008.003-.013.015-.007.025.006.072.017.059.003-.005 0-.013-.007-.019-.01-.01-.01-.016-.003-.03m.034.753c-.002 0 0 .01.005.02s.013.02.017.02c.005 0 .003-.008-.005-.02a.074.074 0 00-.017-.02m.102-.91c.005 0 .006-.006.005-.012-.002-.008-.005-.013-.006-.013-.002 0-.004.005-.005.012 0 .006.003.012.006.013m-.176.882c-.01 0-.011.004-.004.008.007.004.014.003.016 0 .004-.005-.003-.009-.012-.008m-.19-.275c-.023-.015-.042-.031-.043-.038 0-.005.005-.006.012-.002.011.006.024-.032.015-.044-.003-.002.004-.013.015-.021l.018-.017-.02-.002a.07.07 0 00-.038.01.326.326 0 01-.049.025c-.031.014-.033.017-.018.033.01.01.027.014.037.01.014-.004.02-.001.016.01-.002.006-.012.013-.021.012a.064.064 0 00-.033.012c-.012.01-.02.007-.036-.013-.02-.025-.02-.027-.007-.039.01-.011.008-.013-.015-.015-.016 0-.03-.007-.031-.014-.004-.04-.06.006-.068.055-.003.013-.008.021-.012.015-.01-.013-.04.107-.033.13.015.038.1.05.147.019.035-.022.067-.02.113.008.043.026.144.038.164.02.048-.061-.073-.126-.113-.154m1.504-.91c.001.001 0-.004-.004-.009-.002-.006-.006-.01-.01-.011l.004.01.01.01m-.083.716c-.003-.005-.002.002.004.016.004.012.007.016.006.007a.079.079 0 00-.01-.023m-.14.013c-.002 0-.003.004 0 .012.002.005.008.012.013.013.005 0 .005-.006 0-.012-.003-.007-.009-.013-.012-.013m1.465 2.42c.001-.006.002-.01 0-.009 0 0-.003.005-.004.012l-.002.008c.002 0 .004-.006.006-.011m-.018.037c-.003-.002-.005.003-.007.011-.002.013.004.012.008-.002.001-.006 0-.01-.001-.01m-.029-.232c-.001.006-.002.012 0 .014l.002-.008c.001-.017 0-.018-.002-.006m-.005.025l-.003-.006c-.002-.001-.004.001-.006.006 0 .005 0 .007.004.006.002 0 .005-.003.005-.006m-.024-.098c0-.01-.002-.013-.003-.008-.003.016-.001.042.002.034a.08.08 0 00.001-.026m-.012-.056c0-.003-.002-.001-.003.004v.014c.001.002.002.001.003-.005.001-.004.002-.011 0-.013m-.018.036a.054.054 0 01-.02.027l-.014.009.007.008c.002.005.008.006.011.002a.233.233 0 00.025-.057c.003-.015-.001-.01-.009.01m-.045.508c-.002-.035-.006-.033-.005.003 0 .016.002.028.004.027.002-.002.003-.015.001-.03m-.017-.322l.012.005c.004.002.005-.003.003-.022-.002-.014-.004-.023-.006-.02-.001.003-.002 0 0-.005a.09.09 0 00-.001-.028c-.004-.02-.001-.04.007-.048.004-.004.003-.01-.003-.019-.005-.007-.008-.018-.007-.023.003-.018-.005-.036-.03-.057l-.03-.028c-.004-.007-.007-.004-.026.03-.02.037-.022.04-.024.022a.174.174 0 01.002-.04.232.232 0 00.002-.03c-.002-.01-.02-.007-.032.007l-.013.016a.056.056 0 00.007.005c.004.003.008.011.009.018 0 .006.004.012.009.013.007.001.005.003-.005.007-.01.003-.012.005-.008.013.003.004.003.015.001.022-.001.008 0 .014.001.013.002 0 .005-.005.005-.01.001-.005.01 0 .018.01.008.008.017.016.019.015.005 0 .009.053.005.07-.001.006-.004.012-.007.012-.002.002-.007.009-.01.018-.004.014-.003.015.008.005.011-.008.014-.006.017.008.003.022.026.014.032-.01a.082.082 0 01.013-.029c.012-.018.02-.008.023.03 0 .015.005.028.01.03m-.135-.07c.011-.023.015-.037.01-.035-.002 0-.004.005-.006.01a.393.393 0 01-.008.028c-.005.016-.004.016.004-.002m-.03.24l-.007.012c-.002.006-.003.01-.001.01.002-.002.005-.007.006-.012.002-.006.002-.01.001-.01m.088-.068c.008-.053.008-.064-.001-.043-.006.013-.019.06-.039.129a.631.631 0 01-.027.078c-.012.027-.021.036-.02.022a.072.072 0 00-.011-.029c-.019-.032-.02-.035-.005-.07a1.007 1.007 0 01.024-.057c.003-.01 0-.013-.01-.012a.028.028 0 01-.024-.009c-.01-.012-.016-.012-.012-.001.005.009-.005.03-.015.033a.045.045 0 00-.024.028.128.128 0 01-.013.027.093.093 0 00-.011.03.03.03 0 01-.015.02c-.008.006-.012.004-.01-.004.002-.007.002-.017 0-.02-.005-.01-.02.002-.024.016-.002.005-.005.01-.007.01a.144.144 0 00-.031.054c-.001.007-.006.013-.01.015-.007.001-.01.007-.012.017 0 .007-.003.015-.006.015-.002.002-.003-.004-.002-.01.002-.017-.014.008-.023.034a.292.292 0 01-.04.075.46.46 0 01-.048.038.36.36 0 00-.072.069c-.004 0-.008.006-.01.012-.001.007-.006.01-.008.008-.008-.006-.041.087-.042.116-.001.02-.003.025-.01.034-.008.008-.011.02-.018.061a1.144 1.144 0 01-.015.079c-.004.015-.007.03-.005.031a.228.228 0 01-.033.083c-.014.013-.016.022-.004.035.013.015.019.012.051-.02.02-.02.036-.03.055-.037.022-.007.03-.012.037-.025.013-.027.039-.048.109-.095.015-.01.027-.014.03-.01 0 .003.007.005.012.004.008-.002.01.051.001.074-.007.02 0 .01.028-.033.029-.043.031-.04.006.007-.018.036-.022.05-.005.02.013-.023.013-.01 0 .017-.007.014-.008.016-.001.01.01-.01.01.004-.001.032-.01.027-.01.039.003.04.005.001.01.004.012.007.002.006.008.002.019-.013.014-.019.014-.02.015-.007 0 .014.001.014.023-.014a.196.196 0 01.031-.032c.007-.003.01-.009.016-.025.01-.025.07-.145.085-.172a.723.723 0 00.024-.048l.024-.062a.398.398 0 00.02-.058.729.729 0 01.013-.049.187.187 0 00.009-.06c-.001-.016 0-.038.002-.043.003-.007.002-.014 0-.017-.002 0-.002-.017 0-.036a.127.127 0 000-.049.082.082 0 01-.002-.043.882.882 0 00.007-.043.349.349 0 01.009-.041c.004-.02.004-.027 0-.032-.005-.006-.005-.018.001-.061m-.001.73c0-.004-.002-.001-.008.005-.007.008-.01.006-.007-.004 0-.01 0-.013-.003-.01-.002.003 0-.007.004-.023a.12.12 0 00.007-.035c-.002-.011-.004-.007-.009.013a.27.27 0 01-.04.122c-.004.002-.008.017-.006.023.002.007 0 .011-.007.028-.008.015-.01.02-.009.024a.346.346 0 00.043-.078.056.056 0 01.01-.016.22.22 0 00.025-.049m-.087.137c-.002.002-.003 0-.003-.005 0-.006-.006.005-.022.035a.686.686 0 01-.048.076.59.59 0 00-.06.093c-.003.007 0 .011.006.01.014-.001.027-.02.048-.061.013-.028.033-.057.032-.048l.004-.007a.453.453 0 01.021-.041c.02-.036.03-.056.022-.052m-.197.1l-.022.01-.009.034c-.01.042-.008.054.007.03.005-.008.01-.015.01-.012 0 .002.006-.007.013-.02.024-.05.024-.053 0-.043m-.046-.128c-.005.002-.008.005-.006.007.001.001.006 0 .009-.004.003-.004.002-.005-.003-.003m-.211-3.298c-.003-.006-.007-.011-.009-.012-.001 0-.001.004.001.01.003.006.007.011.009.012.002 0 .001-.005-.001-.01m.207-.06c-.002-.005-.004-.01-.006-.01s-.002.003 0 .008c.001.005.004.01.006.011v-.008m-2.682-.36c.01-.01.008-.013-.006-.013-.011 0-.02.004-.019.012 0 .016.01.016.025 0m-.13.047c.008 0 .014-.005.014-.012s-.004-.012-.008-.013c-.005 0-.01.005-.013.013-.003.006 0 .013.008.013m-.207.091c.011.007.03-.012.031-.031 0-.01-.003-.012-.027-.001-.018.006-.02.024-.004.032m-.034-.016c-.006 0-.01.007-.008.013.003.007.009.01.014.006.012-.011.01-.019-.006-.019m.778.97c.014 0 .026-.007.028-.013.002-.008-.006-.014-.02-.014-.013 0-.026.005-.028.012-.002.008.006.014.02.014m-.282-.024c.009.004.025.004.035.001.01-.004 0-.007-.018-.007-.02 0-.028.002-.017.006m-.418-.107l.045.024c.004.003.01-.012.012-.03.006-.033.003-.035-.045-.034-.028 0-.05.006-.05.01 0 .007.017.02.038.03m-.15-.199c.004 0 .009-.012.01-.026 0-.025-.009-.035-.022-.018-.008.01 0 .044.011.044m-.03.074c-.001.025 0 .046.004.046.024 0 .04-.02.042-.054.002-.04-.005-.05-.027-.043-.011.003-.017.02-.02.05m-.193.023c.002.008.009.01.014.007.015-.012.012-.02-.005-.02-.007 0-.012.006-.01.013m3.02 1.09c.01.028.027.069.038.094a.607.607 0 01.04.135c.01.052.02.094.023.093.007 0 .053.081.059.106.014.061.035.152.06.148.008-.001.008-.004.006-.032 0-.017.001-.046.005-.067.006-.039-.046-.096-.072-.108-.009-.004-.016-.015-.02-.031a.185.185 0 00-.023-.05c-.02-.028-.023-.037-.03-.117-.004-.062 0-.092.01-.054.003.01.008.018.013.017.004 0 .022.02.04.042a.277.277 0 00.041.05c.007.004.013.018.017.035.005.016.01.028.011.028.007-.002.017-.045.014-.057-.001-.007 0-.013.006-.014.005 0 .013-.012.017-.027.006-.024.005-.035-.006-.081a.386.386 0 00-.08-.158c-.047-.066-.055-.093-.044-.144.01-.045.036-.055.047-.018.003.012.01.027.016.035.007.01.007.014 0 .014-.018 0-.017.049.002.063.013.009.02-.002.02-.03-.001-.017-.004-.028-.01-.037-.021-.03-.02-.053.001-.072.014-.014.02-.026.016-.038-.004-.013-.003-.015.001-.006.012.021.04 0 .05-.038a.26.26 0 00.009-.086l-.004-.019a.207.207 0 010-.043c0-.07-.008-.105-.027-.109h-.01l.006-.013c.007-.014-.004-.048-.035-.102a.326.326 0 00-.049-.076c-.01-.008-.003-.072.01-.08.013-.009.006-.023-.016-.033-.012-.006-.02-.005-.02.006-.002.018-.015.01-.022-.013a.043.043 0 00-.017-.021c-.015-.006-.028-.04-.015-.04.004 0 .012-.016.016-.036.005-.023.011-.032.017-.027.01.008.01.01.01.03.001.032.013.047.022.028.004-.01.013-.012.024-.007.016.009.017.012.023.037.007.031.012.04.025.043.01 0 .025.022.023.034 0 .006.019.065.03.094.002.004.01.002.019-.005.013-.01.013-.014.001-.052a.286.286 0 00-.045-.091.287.287 0 01-.03-.055.096.096 0 00.007-.061.119.119 0 010-.043c.003-.023.006-.024.018-.013.02.02.027-.003.02-.112a.369.369 0 00-.022-.14.409.409 0 01-.02-.062c-.006-.049-.068-.135-.071-.1-.002.014-.006.016-.01.003-.008-.02-.013-.028-.01-.014.003.013.002.013-.004-.004-.006-.013-.013-.02-.022-.025l-.015-.006.007-.017a.403.403 0 00.009-.043c.008-.09-.027-.105.022-.083.014.007.024.008.024.004 0-.012.033.01.037.024.002.007.007.01.016.01a.069.069 0 01.02-.001c.006.002.005.001-.004-.008-.008-.008-.01-.015-.01-.041 0-.027.003-.03.017-.026.012.005.016.01.02.02.01.025.018.03.02.013.002-.008.005-.012.007-.008l-.005-.014c-.004-.011-.005-.02-.002-.018.011.005.024.05.02.076a.155.155 0 000 .04.045.045 0 01-.005.024c-.008.01 0 .049.018.09.007.018.026.057.041.087.016.029.03.06.035.067.009.02.01-.018 0-.04-.003-.007-.003-.016-.001-.019.002-.001.001-.012-.003-.023-.004-.012-.005-.022 0-.023.005-.002.004-.008-.004-.023-.01-.02-.012-.04-.002-.029.003.004.004.002 0-.004-.002-.007-.006-.012-.007-.013a.068.068 0 01-.011-.021c-.006-.015-.01-.02-.014-.022-.008-.003-.01-.011-.017-.046-.004-.019-.003-.028.001-.026.005.002.009.001.01-.001 0-.003.003-.002.006.005s.006.006.006 0c.001-.013.01-.011.024.006.004.005.006.006.008.004a3.748 3.748 0 00-.253-.354l-.002-.004-.009-.011-.004-.003c-.004-.001-.008-.007-.011-.015l-.001-.002a.984.984 0 00-.024-.028.228.228 0 00-.044-.025c-.047-.022-.023-.014-.042-.039-.016-.022-.057-.042-.05-.025.004.009.002.007-.003-.003-.007-.013-.013-.02-.032-.027l-.032-.016-.017-.007c-.008-.001-.007.002.004.02.012.02.012.021 0 .012-.006-.005-.01-.005-.009 0 .002.005-.002.005-.009 0a.194.194 0 00-.042-.022c-.022-.009-.03-.01-.03.002 0 .015-.014.006-.047-.03-.014-.016-.016-.018-.01-.016.011.003-.006-.02-.017-.024-.009-.003-.01-.004-.005-.01.004-.003.003-.005-.009-.013a.445.445 0 00-.046-.026c-.03-.014-.034-.014-.027-.001.007.013.003.014-.019.007a.147.147 0 01-.046-.024.222.222 0 00-.062-.031.711.711 0 01-.073-.03c-.021-.012-.027-.013-.02-.003.005.008 0 .012-.015.011-.024.001-.041-.01-.023-.015l.026-.012a.848.848 0 01.031-.013c.012-.005.012-.011 0-.033A.07.07 0 006 5.349a.516.516 0 01-.026-.018.143.143 0 00-.043-.019c-.03-.005-.065-.024-.067-.033-.004-.018-.045-.036-.063-.026-.006.003-.01.01-.009.015.002.006-.003.008-.01.007-.006-.002-.01 0-.006.004.003.006-.01.005-.03 0-.06-.015-.16-.01-.171.01-.004.003-.005.006-.008.01l.016.011c.01.009-.003.01-.043.007a.694.694 0 00-.062-.003c-.01.002.025.046.044.057.016.01.02.013.013.015-.004.002-.02-.004-.035-.013l-.052-.026c-.024-.01-.025-.01-.007.01.017.018.016.018-.005.008-.028-.012-.028-.002-.002.017.014.011.013.012-.005.007-.016-.005-.022-.01-.03-.031a.17.17 0 00-.016-.034c-.004-.005-.004 0 0 .01.004.011.002.018-.003.018-.006-.002-.012.003-.014.008-.005.008-.003.012.012.028.014.015.016.02.015.034 0 .027.013.043.046.048.034.005.06.027.06.053.002.015 0 .015-.006-.003-.008-.022-.033-.04-.052-.037-.01.001-.01.007-.002.026.008.02.007.031-.007.048-.018.022-.066.024-.08.001-.005-.008 0-.01.017-.003.021.008.027.004.034-.024.007-.03.007-.034-.006-.049a.147.147 0 01-.027-.056.144.144 0 00-.021-.048c-.007-.008-.01-.013-.009-.027.002-.022-.012-.04-.032-.044-.014-.002-.018-.006-.014-.013.003-.008.002-.01-.008-.012-.008-.001-.012.003-.01.01.002.005 0 .01-.006.01-.005-.002-.01.007-.01.02a.059.059 0 01-.013.035c-.006.008-.01.015-.005.016.004.002.01.01.013.02.003.01.002.017-.001.016-.004 0 .007.012.025.027.052.045.04.054-.022.019a.677.677 0 00-.101-.047 1.053 1.053 0 01-.067-.024c-.013-.007-.012-.005.008.011.032.026.04.042.029.057-.007.008-.012.007-.018-.004-.007-.01-.02-.012-.06-.008-.04.006-.056.004-.062-.007-.004-.007-.012-.01-.017-.006a.097.097 0 01-.028.011c-.037.005-.077.028-.079.041-.001.017-.031.018-.052.005-.016-.01-.014-.03.004-.028.015.001.012-.017-.005-.03-.018-.012-.062-.013-.05 0 .006.006.011.019.01.029 0 .01.005.023.01.028.017.016.003.04-.02.03-.011-.006-.03-.004-.045.005-.03.018-.031.02-.015.045.012.019.01.02-.02.012a.22.22 0 01-.05-.018c-.012-.006-.016-.004-.015.006.001.007.01.018.018.022.016.008.024.029.008.028a.148.148 0 01-.074-.05.082.082 0 01-.009-.035c.001-.01-.006-.02-.019-.025-.04-.018-.013-.019.057 0 .063.015.075.014.094 0 .014-.011.02-.024.017-.034a.24.24 0 00-.076-.054.57.57 0 00-.181-.064c-.036-.009-.04-.011-.027-.02.017-.009.016-.009-.009-.021-.013-.006-.028-.009-.032-.007-.005.003-.01 0-.01-.007 0-.009-.005-.01-.012-.005a.076.076 0 01-.027.01.046.046 0 00-.024.017c-.006.009-.01.011-.01.006 0-.004.004-.016.01-.025.009-.012.007-.014-.016-.003a.094.094 0 00-.034.023c-.004.005-.015.007-.023.003-.01-.002-.025.002-.035.01-.011.01-.024.012-.033.005-.02-.013-.027-.013-.022 0 .002.006 0 .01-.005.01a.34.34 0 00-.027.001c-.014.001-.016.004-.007.013.018.019-.01.029-.029.012-.013-.011-.015-.011-.01 0 .003.01 0 .012-.012.005-.013-.006-.016-.005-.007.005.006.007.017.01.024.007.028-.014.01.015-.031.046a.197.197 0 00-.058.071c-.007.02-.02.036-.026.036-.006 0-.01.006-.01.013-.001.006-.004.01-.008.006-.003-.003-.016.005-.028.02-.012.013-.026.021-.032.018-.006-.004-.011 0-.012.011 0 .01-.007.019-.014.019s-.03.01-.048.02c-.037.025-.05.063-.03.095.007.014.007.019-.005.033-.013.014-.012.015.006.008.019-.007.02-.006.005.012-.019.02-.015.027.024.039.021.006.038 0 .064-.019.018-.014.035-.032.035-.04 0-.01.005-.009.012.001.007.01.011.024.011.033 0 .01.003.018.007.018.005 0 .008.007.008.016 0 .01.006.028.015.041.008.013.014.025.011.03-.001.003 0 .015.004.027.008.023.042.022.042-.001 0-.007.01-.012.022-.012.035 0 .054-.023.05-.064-.003-.03 0-.04.02-.051a.17.17 0 00.035-.034c.01-.015.01-.019-.004-.034-.008-.01-.02-.018-.026-.018-.006 0-.01-.01-.01-.022 0-.04.023-.075.06-.096.043-.024.057-.04.05-.055-.01-.022.032-.048.067-.044.04.006.05.023.027.044-.085.07-.095.08-.088.1a.22.22 0 01.006.045c0 .042.04.061.1.052l.07-.011c.026-.004.053.014.044.028-.002.006-.03.01-.061.01-.07.004-.094.012-.093.03 0 .007.007.016.017.02.01.004.015.014.013.03-.004.036-.015.04-.035.018-.034-.033-.058-.005-.056.064.001.033-.002.042-.016.042-.01-.001-.017.004-.017.012 0 .016-.037.015-.049-.002-.006-.007-.029-.003-.069.013-.033.014-.065.02-.07.015a.14.14 0 00-.058-.009c-.052 0-.078-.021-.068-.05a.044.044 0 01.022-.027c.013-.006.016-.012.009-.025-.006-.01-.007-.024-.003-.031.009-.021-.017-.016-.033.007-.008.01-.018.015-.023.01-.007-.006-.008.004-.007.041.006.093.005.101-.018.102-.064.004-.07.006-.077.034-.005.019-.009.022-.013.01-.003-.011-.012-.005-.03.025a.134.134 0 01-.054.049c-.014.005-.03.017-.033.027a.124.124 0 01-.037.04c-.024.016-.035.017-.047.006-.014-.012-.016-.01-.02.013-.002.022-.008.027-.026.027-.045-.005-.062 0-.065.02-.001.01.005.02.015.02.038-.001.077.06.072.108a.305.305 0 01-.017.065c-.012.03-.015.032-.095.028a.511.511 0 01-.09-.009c-.007-.003-.02.001-.033.009-.02.014-.024.022-.028.074a.414.414 0 01-.023.098c-.014.03-.017.045-.01.057a.1.1 0 01.002.047c-.005.03-.002.032.025.023.023-.007.034-.002.046.018.013.023.021.025.043.013a.188.188 0 01.064-.014c.023-.001.04-.008.044-.021.004-.011.013-.02.02-.02.016 0 .046-.055.047-.082 0-.028.047-.083.086-.1.024-.012.034-.024.038-.05.008-.043.043-.063.074-.041.016.01.031.006.07-.018a.263.263 0 01.059-.032c.006-.002.03.025.052.056.023.033.07.078.105.1.067.04.084.069.071.123-.007.029-.005.027.023-.007.024-.031.027-.04.014-.05-.013-.009-.013-.016-.003-.029.01-.013.017-.013.034 0 .013.01.024.014.028.01.007-.008-.06-.06-.077-.06-.007 0-.013-.007-.013-.014 0-.008-.007-.013-.016-.013-.008 0-.033-.023-.054-.052a.19.19 0 00-.047-.053c-.006 0-.01-.014-.009-.031.002-.037.038-.059.046-.027.003.01.013.016.022.012.01-.005.02.006.03.031.009.02.028.041.043.046a.309.309 0 01.067.042c.03.024.04.042.04.068 0 .023.015.053.042.087.022.028.037.054.032.055-.013.006.033.065.05.065.01 0 .012-.008.009-.02-.005-.014.002-.024.019-.033.04-.02.024-.051-.02-.041-.006 0-.007-.007-.004-.018.003-.012 0-.024-.005-.028-.018-.015-.012-.036.008-.026.01.004.024 0 .03-.013.022-.039.093-.013.083.03-.002.01.002.019.008.019.008 0 .012.012.01.033 0 .02.002.034.006.034.005 0 .01.01.01.02 0 .012.014.027.03.035l.051.03c.019.012.028.011.04-.006.013-.02.018-.02.044-.001.033.023.072.028.078.01.001-.007.018-.015.035-.017l.031-.004.001.054a.593.593 0 01-.014.126c-.02.085-.05.11-.095.078-.024-.016-.033-.017-.059-.002-.035.02-.058.02-.11 0a1.96 1.96 0 00-.098-.031c-.034-.01-.062-.022-.062-.029-.001-.005-.013-.014-.028-.018-.038-.013-.086.018-.084.054a.11.11 0 01-.014.048c-.012.019-.018.018-.061-.006a.234.234 0 00-.072-.025.042.042 0 01-.035-.024c-.011-.024-.085-.06-.1-.05-.01.007-.104-.043-.103-.054 0-.004.011-.019.024-.032.021-.02.022-.027.011-.046-.01-.018-.01-.026.002-.045.013-.02.013-.021-.002-.013-.01.004-.02.003-.019-.005 0-.01-.014-.012-.037-.006a1.927 1.927 0 01-.147.016c-.078.006-.18.021-.232.076-.013.012-.114.005-.125-.012-.01-.02-.018-.014-.036.03a.154.154 0 01-.055.064c-.045.03-.094.104-.093.145 0 .033-.033.077-.091.113a.417.417 0 00-.116.144.122.122 0 01-.025.042.8.8 0 00-.054.086c-.029.052-.03.06-.021.08.01.024.01.05-.002.13a.408.408 0 01-.054.142c-.007.004-.009.015-.003.035a.158.158 0 01.002.067c-.008.028-.004.037.014.045.012.004.022.013.02.02 0 .006.014.036.032.066.018.03.03.069.03.081.004.058.091.124.14.17.025.025.032.026.135 0a.21.21 0 01.096 0c.035.01.057.006.115-.02.057-.027.147-.065.209-.027.016.012.029.03.028.04-.001.034.023.047.08.037.047-.008.056-.004.087.025.022.02.034.042.03.054a.368.368 0 00-.009.084.222.222 0 01-.014.078c-.014.021.009.061.077.133.06.066.109.152.126.243l.018.088c.008.038.005.052-.014.073a.312.312 0 00-.05.175c.01.063.062.131.102.186.012.015.025.06.032.098.012.078.032.126.059.147.025.019.09.14.081.154-.01.016.016.059.043.07.018.007.03.007.046-.002a.232.232 0 01.08-.017c.097-.008.191-.042.25-.127.018-.022.046-.056.063-.073a.129.129 0 00.038-.084c.008-.05.01-.051.055-.074s.047-.027.052-.067a.331.331 0 00-.003-.086c-.006-.039-.005-.043.018-.062a.42.42 0 00.054-.052.188.188 0 01.062-.048.193.193 0 00.06-.044c.025-.028.027-.039.037-.131.008-.076.006-.105-.005-.115-.008-.008-.013-.037-.013-.07a.3.3 0 00-.007-.084c-.007-.021-.002-.038.026-.09a.604.604 0 01.067-.102l.09-.105a.524.524 0 01.088-.087.38.38 0 00.131-.226.947.947 0 01.025-.096.307.307 0 00.003-.078c-.004-.059-.006-.063-.021-.052a.814.814 0 01-.113.04 3.455 3.455 0 01-.098.027l-.03-.034c-.018-.02-.025-.037-.018-.04.014-.008-.06-.094-.116-.137a.16.16 0 01-.06-.085.217.217 0 00-.047-.08c-.02-.019-.033-.046-.043-.091a.223.223 0 00-.044-.1.178.178 0 01-.035-.056.37.37 0 00-.031-.073 4.325 4.325 0 00-.093-.182c-.014-.023-.022-.043-.017-.043.004.001.019.02.033.044.03.054.052.064.048.022-.002-.02 0-.024.005-.01l.055.09a.475.475 0 01.049.084c0 .008.014.024.027.036a.2.2 0 01.063.122c.002.021.018.044.044.07a.157.157 0 01.042.05c.001.01.019.04.04.07.02.028.039.066.041.082.007.051.044.15.058.156.007.003.024-.003.038-.014a.082.082 0 01.036-.019.086.086 0 00.035-.012c.012-.007.023-.011.026-.01a.072.072 0 00.026-.02.238.238 0 01.055-.04.12.12 0 00.05-.047.076.076 0 01.05-.04c.02-.005.032-.016.03-.027 0-.01.005-.018.015-.018.01 0 .016-.007.015-.013-.001-.008.006-.02.016-.03.01-.007.015-.018.013-.024-.01-.014-.005-.051.006-.051.005 0 .014-.02.02-.042l.01-.042a1.105 1.105 0 00-.024-.03.124.124 0 00-.05-.037c-.03-.01-.044-.03-.058-.076-.003-.015-.005-.021-.01-.036l-.021.044c-.038.072-.115.071-.116-.003 0-.038-.022-.052-.025-.015-.001.028-.003.027-.023-.021a.159.159 0 00-.033-.058.194.194 0 01-.041-.059c-.027-.05-.027-.05-.012-.065.028-.024.05-.015.079.039.03.048.096.125.156.112.008-.008.017-.009.021-.005.004.004.006.001.004-.006-.006-.028.013-.017.028.016a.15.15 0 00.023.038c.066.027.173.04.24.018.004-.004.022.013.041.037.046.056.085.091.093.081.003-.004.008-.001.009.005.001.008-.004.015-.013.015-.017-.001-.016.002.015.04.038.044.062.041.062-.006 0-.027 0-.027.016.007.009.021.016.043.015.05a.92.92 0 00.087.238.532.532 0 01.034.072c.002.009.017.04.033.068.016.029.038.072.049.098.027.066.04.067.059.008a.39.39 0 00-.013-.217c-.013-.05-.013-.06-.003-.067.007-.004.011-.012.01-.018-.001-.006 0-.011.005-.011.007 0 .025-.042.043-.11.007-.022.015-.04.02-.04.012 0 .018-.026.01-.052-.003-.013 0-.023.003-.024l.028-.006a.126.126 0 01.029-.008c.004 0 .006-.01.005-.023-.005-.033.015-.013.04.038.012.026.03.05.04.06.012.008.02.02.02.031 0 .01.004.018.008.018.01 0 .035.062.036.091 0 .021.004.029.011.034.02.011.026.007.034-.023l.008-.03.02.05m-.284.337c-.028-.05-.036-.056-.036-.027 0 .03.019.106.03.125.009.014.013.015.025.002.019-.019.014-.041-.02-.1m-.477 2.778c.002.001.007 0 .01-.004.004-.004.002-.006-.004-.003-.006.002-.01.005-.006.007m-.342-2.925c.005.008.012.01.016.006.01-.012.006-.02-.01-.02-.008 0-.01.008-.006.014m-.043 1.43c.005 0 .007-.006.006-.01-.001-.007-.005-.011-.007-.011s-.004.005-.006.011c-.001.006.002.01.007.01m-.027 1.176c-.005.015.012.014.03-.002.008-.007.006-.01-.007-.011-.013-.001-.02.003-.023.013m-.33-1.162c-.023.03-.026.044-.028.085-.002.07.016.093.06.079a.126.126 0 00.04-.018c.05-.072.089-.188.123-.284a.272.272 0 01.015-.031.067.067 0 00.008-.037c-.002-.017 0-.02.012-.016.011.005.013 0 .014-.038.001-.039-.01-.105-.018-.104l-.01.008c-.004.004-.008.017-.01.027a.086.086 0 01-.021.038.382.382 0 00-.038.046.148.148 0 01-.055.042c-.054.022-.077.061-.072.121.004.042.001.05-.02.082M3.728 11.57c.005 0 .006-.005.005-.012l-.005-.013-.005.012c-.002.008 0 .013.005.013m-.339.066c0 .004.004.01.008.01.002 0 .003-.004 0-.009-.002-.005-.005-.01-.007-.01v.009m2.7-.497c-.023.011-.03.012-.035.008-.002-.001-.012 0-.02.004-.01.003-.016.004-.013 0 .004-.007-.002-.006-.008.002a.061.061 0 01-.016.011c-.007.004-.012.004-.01.003.001-.003-.002-.004-.007-.003-.02.005-.034.002-.028-.005.003-.004.003-.006-.001-.003a.316.316 0 01-.055.014c-.018.003-.027.005-.04.009-.005 0-.004-.002.004-.014.008-.01.01-.014.006-.012a.052.052 0 00-.015.016c-.008.013-.012.015-.035.024a.095.095 0 00-.039.022c-.016.017-.033.022-.033.011 0-.004-.005-.005-.009-.001a.54.54 0 01-.106.043c-.022.007-.045.006-.049-.002-.003-.008-.036.006-.054.024-.013.012-.019.013-.062.015-.041 0-.051.001-.073.015-.009.005-.013.008-.014.01l-.002.001a.076.076 0 01-.026.019.32.32 0 00-.113.044.194.194 0 00-.043.026.458.458 0 01-.067.038.212.212 0 00-.05.027c-.007.007-.012.01-.013.008 0-.002-.009.006-.018.017-.022.024-.057.046-.07.043-.008-.003.005-.026.016-.029a.067.067 0 00.02-.015c.012-.013.012-.013.002-.007-.013.008-.022.002-.013-.008a.029.029 0 01.013-.008.143.143 0 00.047-.047c.002-.004-.017-.006-.045-.005a.487.487 0 01-.148-.005c0-.003-.003-.01-.008-.014-.019-.015-.104.005-.11.028-.002.008-.006.01-.019.009-.013 0-.017.001-.018.008 0 .008-.004.01-.02.007a.09.09 0 00-.04.007.22.22 0 01-.036.014.216.216 0 00-.085.039c-.013.015-.04.023-.04.012 0-.005-.005-.005-.011-.002-.007.003-.018-.002-.026-.012-.012-.015-.016-.016-.027-.008-.026.023-.047.03-.119.044a.44.44 0 01-.124.008.455.455 0 00-.165.001c-.005.006-.015.006-.024.002a.498.498 0 00-.16-.002.199.199 0 01-.11.01c-.03-.004-.055-.011-.053-.015.005-.015-.02-.01-.034.007-.013.016-.014.017-.026 0-.01-.014-.014-.015-.03-.008-.01.005-.023.007-.029.002-.01-.005-.01-.005 0 .01.012.013.012.013-.002.02a.057.057 0 01-.024.007c-.005 0-.012.002-.014.006-.003.003-.012.008-.023.008-.01 0-.019.005-.02.012 0 .008.004.01.022.009.02-.003.018 0-.012.014-.02.008-.036.02-.036.024 0 .005-.015.008-.035.005-.067-.01-.28-.007-.289.03a.25.25 0 00.077.038h.04c.031.003.033.003.02.012l-.013.009.018.004c.009.001.019.01.019.01-.003.004-.008.005-.015.007a3.677 3.677 0 002.824-.652m-3.063-.365a.073.073 0 00-.027-.015c-.02-.007-.02-.006-.001.007.023.018.038.022.028.008m-.045.924a.077.077 0 01-.015-.025c-.003-.018-.063-.039-.096-.035a.029.029 0 00-.024.02c-.002.012-.011.018-.032.018h-.015c.049.016.1.03.15.044h.033c.011-.005.011-.006 0-.022M2.79 5.72c.011-.004.017-.002.016.003-.002.006 0 .011.006.011s.009.005.007.01c-.001.006.006.01.016.012.015 0 .026-.01.046-.042a.174.174 0 00.026-.055c0-.007.013-.021.031-.034.033-.022.042-.037.031-.046-.004-.004-.001-.007.007-.007.01-.002.012-.006.01-.02s.003-.018.03-.025a.136.136 0 00.05-.03c.017-.018.018-.017.007.003-.01.018-.01.02.005.01a.208.208 0 01.047-.022.173.173 0 00.061-.039c.016-.016-.103-.027-.098-.027.005 0 .145-.01.145-.02.001-.017.003-.018.012-.007.013.017.102-.003.179-.04.046-.021.051-.026.039-.034a.135.135 0 00-.043-.011c-.016-.003-.02-.005-.01-.009.01-.003.016-.01.016-.024 0-.015.003-.017.015-.01.007.005.015.015.015.021.002.014.057.021.06.008.004-.02-.018-.056-.038-.064-.023-.008-.037-.043-.018-.043.007 0 .01.005.008.012-.002.012.033.037.043.029.013-.011.009-.026-.014-.04-.014-.008-.022-.018-.02-.021.003-.004.014 0 .025.007.02.013.066.004.068-.016 0-.007.01-.016.021-.02l.021-.006c-.008-.002-.013-.002-.02-.002-.025-.002-.025-.026-.001-.025.009 0 .017-.004.018-.007.003-.018-.014-.041-.03-.041-.034 0-.03-.017.004-.02 0 .003.001.006.004.006s.007-.004.01-.008c.018 0 .029.004.028.01-.002.01.002.008.01-.002.015-.02.012-.03-.011-.03-.011 0-.02-.008-.022-.015-.001-.008-.008-.01-.018-.006l-.015.008.018-.025c.01-.014.023-.024.028-.024.005 0 .012-.008.016-.017.005-.01.014-.017.022-.017.008 0 .02-.005.027-.01a.256.256 0 01.086-.05l.038-.013-.037-.011a.101.101 0 00-.069.004.104.104 0 01-.048.008c-.01-.004-.032 0-.048.01-.016.007-.031.013-.031.01-.002-.004 0-.007.003-.007.004 0 .013-.008.022-.018.014-.016.012-.018-.024-.011-.024.004-.036.002-.032-.004.004-.007.02-.012.035-.012.016 0 .032-.006.035-.012.004-.007-.005-.011-.022-.011a.105.105 0 01-.046-.01.582.582 0 00-.22-.005c-.022.003-.041.011-.043.017-.001.004-.038.01-.08.011-.046.001-.069.006-.057.01.017.006.025.02.013.02-.004 0-.007.006-.008.012-.001.014-.003.013-.051 0-.054-.016-.063-.014-.063.006.001.02-.008.022-.03.01-.01-.007-.017-.005-.023.003-.006.01-.01.009-.013 0-.007-.017-.143.02-.15.038-.004.01-.013.015-.032.018a.278.278 0 00-.106.05c-.006.004 0 .007.013.004.012-.001.02.002.017.008-.005.011-.02.02-.067.034-.081.027-.103.036-.106.043-.006.011.052.024.063.015.005-.005.005-.002.002.003-.002.007-.018.014-.035.018-.024.004-.027.006-.016.01.006.003.015.011.017.017.004.007.029.006.075-.005.07-.015.12-.007.122.02 0 .008.005.013.01.013.004 0 .01.019.012.041.005.037.003.046-.009.058-.027.028-.026.039.004.03.019-.006.034-.004.045.008.014.017.014.047 0 .033-.005-.004-.017-.006-.029-.005-.013.001-.018-.003-.013-.01.005-.007.003-.009-.004-.005-.007.004-.013.012-.013.018 0 .006-.004.011-.007.011-.004 0-.01.007-.014.017-.008.02.01.03.034.02l.018-.009-.008-.015c-.008-.014-.008-.014.01-.009.01.003.018.012.016.017 0 .006.005.005.012-.002.012-.013.01-.01-.005.016-.012.02-.025.032-.033.032s-.026.014-.041.028c-.025.024-.028.029-.023.041.004.01.002.015-.006.02-.007.004-.008.015-.002.032a.087.087 0 010 .043c-.008.02-.007.02.022.003.023-.013.023-.013.001.012-.021.025-.022.027-.009.08.013.057.028.072.058.063m-.118 5.913c0-.004-.001-.007-.004-.009-.008-.01-.024-.013-.024-.005l-.004.002.032.012m-.12-.453c-.006-.001-.008.001-.007.006a.02.02 0 00.012.01c.004.002.007-.001.006-.005-.001-.006-.007-.01-.012-.01m.056.26l-.02-.015c-.01-.008-.018-.017-.018-.02.002-.003 0-.005-.003-.006-.004-.002-.008-.01-.011-.021-.003-.014-.008-.02-.019-.027-.008-.004-.014-.01-.014-.015.001-.01-.048-.053-.062-.055-.008 0-.014-.006-.021-.02a.062.062 0 01-.01-.02c.016-.019.026-.025.035-.02.007.005.01.001.011-.007 0-.018.026-.032.047-.027.008.002.013 0 .011-.005 0-.004.005-.01.015-.01l.016-.004a.173.173 0 01-.019-.005c-.01-.003-.019-.003-.02 0-.001.001-.009.005-.02.005a.187.187 0 00-.07.023.102.102 0 01-.028.02c-.012.006-.02.015-.019.021.003.005.007.009.01.008.005-.002.007.003.013.022.006.02.004.023-.009.019-.018-.005-.02-.009.026.054a.36.36 0 01.023.034c.007.013-.015.016-.067.008-.05-.008-.056-.011-.068-.026-.01-.014-.015-.015-.022-.012-.005.003-.006.007-.002.008a.028.028 0 01.011.011c.003.007-.003.006-.019-.002l-.037-.02a.225.225 0 01-.03-.015c-.012-.008-.018-.008-.02-.001-.003.009-.01.007-.043-.007a.22.22 0 01-.043-.025.08.08 0 00-.03-.013.09.09 0 01-.03-.016.927.927 0 01-.244-.095c-.012-.008-.017-.008-.014-.003.003.005.015.013.033.02.016.006.03.014.032.018.001.004-.009.002-.023-.005s-.022-.01-.016-.006a.1.1 0 01.02.018c.005.004.011.01.015.01a3.58 3.58 0 00.459.266c.007.003.011.003.008 0a.123.123 0 00-.037-.02c-.014-.006-.029-.014-.032-.02-.005-.006 0-.006.017.003.055.028.12.052.124.047.003-.003-.006-.01-.027-.018-.038-.017-.087-.053-.08-.06.003-.002.022.006.045.019a.277.277 0 00.121.042l.061.004c.027.002.041 0 .042-.007 0-.006.006-.008.01-.003.005.003.012-.001.017-.01.006-.01.006-.017 0-.02a.019.019 0 01-.011-.008c-.002-.004.006-.003.017 0l.019.008m-.137.098c-.012 0-.022.003-.023.006l.027.012c.007 0 .015 0 .023-.003.022-.006.01-.013-.027-.014m-.62-.376c-.028-.01-.041-.015-.031-.01.009.005.017.012.017.014 0 .003.006.007.012.008l.04.013c.046.017.011-.005-.039-.025m.008-.88c-.004 0-.006.003-.005.01.002.004.007.01.01.01.005.002.007-.003.005-.008-.001-.006-.005-.01-.01-.012m.15.955a.02.02 0 00-.01-.009c-.001 0-.003.001 0 .006a.027.027 0 00.008.01c.003.001.003-.003.002-.007m.05-.614c-.006-.002-.01.005-.01.012 0 .012.002.013.011.006.013-.009.014-.016-.001-.019m.043.008c-.008 0-.018.004-.02.012-.005.013-.004.014.01.01.024-.005.03-.018.01-.022m.135.678c-.01-.002-.014-.001-.01.004.003.004.01.01.017.012.005.002.01 0 .01-.003 0-.005-.007-.01-.017-.013m.137-.078c.005-.004.007-.01.005-.014-.004-.011-.011-.012-.015-.002-.005.012.001.022.01.016m-.107.03c.005.004.01.005.01.003.002-.002-.002-.005-.008-.006-.007-.002-.007 0-.002.004m-.007.02c0 .003.01.007.022.009.028.004.029 0 0-.009-.011-.003-.022-.003-.022 0m.1.062c-.02.004-.016.006.019.014.06.014.061-.004.004-.068-.033-.037-.04-.041-.056-.04-.005.001-.005.007.002.02.005.008.007.018.004.021-.003.004 0 .006.011.01.023.006.019.012-.006.01l-.029-.003a.076.076 0 01-.017-.003c-.006 0-.005.002.001.01.008.008.016.01.03.01.012-.001.025.002.031.007.011.009.011.01.006.012m.073-.178c-.006.004-.005.006.004.008.005.001.009-.001.007-.006-.004-.01-.004-.01-.012-.002m-1.017-3.49c-.003.011.065.03.08.02a.117.117 0 01.04-.007.18.18 0 00.034-.005c.002-.003-.005-.018-.016-.033-.022-.031-.091-.047-.085-.02.005.03-.009.053-.03.044-.01-.005-.02-.003-.023.002m.009-.274c.004 0 .01-.007.011-.013.003-.007.003-.013-.002-.013-.003 0-.008.005-.011.012-.003.007-.002.013.002.013m-.068.281c-.008-.017-.038-.02-.038-.003 0 .006.01.014.022.015.016.001.02-.002.016-.012m.017-.096c-.008.015-.004.02.023.022.035.002.06-.015.042-.031a.266.266 0 01-.031-.037c-.065-.085-.083-.097-.124-.082a.119.119 0 00-.04.03c-.016.017-.016.018.002.01a.095.095 0 00.03-.018c.013-.014.035-.011.029.004-.002.006.002.013.01.013.01.001.017.007.016.014 0 .007.007.014.016.014.008.001.014.01.012.02-.001.01.003.02.011.021.01 0 .011.008.004.02m.245.106c-.01-.001-.02.004-.023.011-.003.007.004.014.015.015.01 0 .02-.005.023-.012.002-.007-.004-.013-.015-.014m.036.364c-.004 0-.01.004-.012.012-.001.006 0 .013.005.014.004 0 .01-.006.012-.012.002-.008 0-.013-.005-.014m.533-1.627a.092.092 0 01-.02-.019c-.004-.004-.004.001-.001.012.003.01.011.02.02.018.012 0 .012-.002 0-.011m.075-.133c-.006-.02-.034-.027-.03-.007 0 .004.01.014.018.018.016.008.018.007.012-.01m.197-.003c-.017.005-.027.001-.03-.011-.002-.01-.008-.016-.014-.01-.014.01.003-.016.033-.05.033-.038 0-.027-.035.011a.38.38 0 00-.044.057c-.009.014-.018.024-.021.024-.004 0-.01.009-.014.02-.004.01-.011.018-.015.018s-.01.006-.012.013c-.004.007.017.01.05.01.044-.002.053-.001.04.013-.026.03 0 .017.04-.023.023-.021.035-.034.027-.03-.01.007-.009.002.003-.02.016-.026.014-.028-.008-.022m.005.073c.013-.02.003-.014-.02.012-.02.022-.021.024-.012.032.005.006.015.002.021-.007.007-.01.01-.02.007-.02-.003-.004-.002-.011.004-.017m-.556-.227c-.005 0-.01.003-.011.006-.002.002 0 .007.002.011.003.004.008 0 .012-.005.003-.007.002-.012-.003-.012m.108-.134c-.005 0-.012.005-.015.013-.003.006 0 .008.006.004a.126.126 0 00.015-.013c.002-.002-.002-.004-.006-.004m.07-.264a.037.037 0 00-.023.013c-.005.007-.003.011.005.01a.04.04 0 00.023-.012c.006-.007.004-.012-.004-.01m.05.017c-.004 0-.012.005-.018.012-.005.006-.005.012 0 .011.004 0 .012-.007.017-.013.006-.006.006-.011.001-.01m.01-.056c.004-.007.001-.011-.005-.01-.006 0-.009-.004-.005-.01.005-.01-.013-.028-.034-.034-.004 0-.003-.008.002-.015a.073.073 0 00.007-.012l-.015.008a.134.134 0 00-.032.036.32.32 0 01-.037.047c-.017.015-.017.015-.002.008.01-.005.017-.003.017.005 0 .01.006.008.03-.01.025-.018.032-.02.042-.01.013.012.024.012.032-.003m.047.007c-.006 0-.01.004-.006.007.002.004.008.002.011-.002.004-.004.003-.006-.005-.005m.11-.232c-.011.01-.018.018-.015.017a.07.07 0 00.022-.018c.02-.022.018-.022-.007.001m.054.049c.003.002.01.001.015-.001.005-.004.003-.006-.005-.005-.008 0-.012.003-.01.006m.003-.028l-.025.011c-.03.012-.056.05-.032.047.02-.002.033-.013.048-.04a.112.112 0 00.01-.018m-1.347.765a.2.2 0 00.017-.027c.012-.02.014-.026.008-.025a.025.025 0 00-.015.01c-.004.008-.013.042-.01.042M.941 6.12c.01-.01.01-.011.005-.01a.03.03 0 00-.012.01.102.102 0 01-.02.02c-.019.012-.027.028-.01.018.012-.008.035-.03.028-.028-.002 0 .002-.005.009-.01m.85 4.514c-.001-.015.003-.025.01-.024.01.003.011.006.008.016-.004.01-.002.013.008.015.011.003.012.004.006.016-.005.009-.01.015-.012.014-.003 0-.007.001-.008.006-.002.004.007.008.02.01.013.004.023.009.022.015 0 .005.007.01.018.012.013.003.016 0 .01-.008-.008-.011-.007-.011.005 0a.069.069 0 00.043.014c.032.001.043-.012.015-.018a.2.2 0 01-.082-.062c-.001-.006-.012-.017-.022-.023-.015-.01-.018-.012-.008-.01.01.001.01-.002-.003-.025-.017-.03-.018-.045-.002-.041.006 0 .01-.008.01-.02s.006-.027.015-.033c.02-.011.019-.042-.003-.046-.038-.007-.057-.065-.023-.07.01-.001.017-.008.017-.016a.183.183 0 00-.002-.06c-.002-.005.001-.007.006-.006.007 0 .007 0-.001-.008a.114.114 0 01-.022-.032c-.012-.024-.01-.025.024-.012.034.012.037.011.037-.013a.096.096 0 00-.006-.04c-.006-.008.001-.012.023-.009.054.007.084 0 .097-.025.013-.026.013-.05-.002-.053-.004 0-.01-.011-.013-.023a.076.076 0 00-.024-.033.066.066 0 01-.022-.027c-.001-.007.003-.006.012.003a.176.176 0 00.06.028c.04.012.047.01.064-.014a.158.158 0 00.023-.063c.007-.045.02-.076.03-.066.003.005.004.013.002.022a2.085 2.085 0 01.029-.058.13.13 0 00.01-.084c-.006-.028-.003-.059.003-.07.016-.028.105-.073.14-.07.028.001.062-.023.059-.042a.197.197 0 01.014-.053c.01-.023.014-.045.012-.047a.145.145 0 01.002-.05.598.598 0 00-.001-.117c-.008-.055-.006-.078.006-.096.037-.058.083-.121.101-.19a.281.281 0 00-.013-.086c-.013-.042-.02-.054-.04-.056a.242.242 0 01-.084-.061c-.048-.048-.068-.06-.103-.065a.155.155 0 01-.062-.02c-.013-.01-.03-.013-.042-.006-.019.008-.022.005-.024-.018-.002-.022-.015-.035-.06-.062a2.898 2.898 0 00-.057-.034l-.018.037c-.01.02-.022.032-.027.026-.005-.006.001-.021.01-.034.022-.027.013-.05-.02-.062-.019-.008-.028-.002-.038.024-.012.03-.013.03-.017.007a.126.126 0 01.017-.064c.019-.034.02-.04.003-.057a.217.217 0 01-.03-.062c-.007-.025-.027-.067-.04-.094-.02-.04-.031-.048-.081-.06-.055-.013-.06-.017-.082-.075-.015-.04-.03-.062-.043-.064-.019-.002-.02-.008-.01-.028.01-.018.008-.027-.006-.035-.01-.005-.019-.02-.02-.032 0-.019-.006-.02-.04-.007-.026.01-.04.01-.046-.001-.006-.008-.02-.013-.033-.012-.017.002-.027-.005-.03-.024-.003-.016-.012-.03-.017-.03a.012.012 0 01-.01-.012c0-.005-.002-.001-.003.007-.002.009-.009.016-.016.015-.007 0-.019.004-.027.012-.02.022-.02-.002 0-.03.025-.036.018-.042-.016-.015-.017.014-.035.023-.04.023A.025.025 0 001.312 8c-.005.005-.012.01-.016.01l-.014.002c-.003 0-.01.008-.013.018a.24.24 0 01-.036.054c-.03.036-.03.036-.038.01-.01-.04-.027-.047-.059-.028-.025.016-.03.015-.04-.002a.154.154 0 01-.012-.053c-.003-.033 0-.042.032-.118.031-.074.035-.083.03-.106-.004-.018-.014-.024-.048-.026-.062-.004-.06-.004-.045-.023a.31.31 0 00.03-.059c.009-.024.018-.041.019-.037.002.004.01-.01.019-.028a.587.587 0 01.03-.054c.028-.042.026-.05-.009-.045-.04.006-.057.02-.072.06-.011.029-.047.07-.052.059-.001-.004-.014-.003-.027.003-.036.015-.05-.01-.042-.084a.35.35 0 01.035-.137.444.444 0 01.04-.082.123.123 0 00.019-.042c.014-.043.05-.097.066-.096.005 0 .018-.01.03-.02.021-.023.06-.024.097-.003.019.01.02.01.029-.017.009-.027.011-.028.046-.027.02 0 .039.009.04.02.004.01.01.012.022.004.021-.014.031.035.013.07a.115.115 0 00-.013.052.154.154 0 01-.003.04c-.005.012 0 .045.008.045.004 0 .014-.013.024-.03a.57.57 0 00.04-.155.303.303 0 01.013-.054c.01-.025.047-.076.055-.076a.12.12 0 00.036-.03c.016-.018.032-.032.037-.032.004 0 .015-.008.023-.018.01-.01.022-.019.03-.019s.013-.006.016-.02c.003-.013.006-.019.008-.012.003.004.008.003.014-.005.004-.006.005-.012 0-.013-.004 0-.003-.005.008-.016.008-.01.014-.023.013-.03a.217.217 0 01.032-.09c.009-.012.008-.004-.001.025-.012.036-.012.04.003.02a.146.146 0 00.02-.043c.004-.011.01-.018.017-.017.01 0 .02-.012.031-.032.014-.024.023-.031.036-.031.012 0 .017-.004.014-.012-.004-.006.008-.014.034-.018.03-.008.039-.013.038-.025 0-.03.038-.08.077-.096l.055-.03a.17.17 0 01.027-.016l.032-.011c.022-.008.024-.008.003.011a.092.092 0 01-.028.02c-.008 0-.022.036-.018.045.003.005.017-.001.033-.014a.187.187 0 01.043-.027c.028-.007.078-.04.085-.056.005-.013.006-.013.006-.002-.001.01.004.012.014.004s.013-.012.007-.012c-.005 0-.005-.01 0-.023.007-.018.003-.017-.02.01-.023.025-.034.031-.052.029-.029-.006-.042-.036-.028-.068.008-.017.006-.025-.004-.026-.011-.002-.009-.004.01-.01a.057.057 0 00.03-.027c.007-.014 0-.019-.026-.018-.036.003-.08.027-.128.075-.022.02-.02.016.01-.017a.52.52 0 01.119-.097c.02-.015.039-.018.09-.013.057.006.07.003.099-.019a.36.36 0 01.069-.039c.031-.01.037-.017.05-.047.013-.03.012-.038-.006-.052-.014-.011-.017-.02-.007-.027.01-.008.01-.01.005-.012-.01-.002-.018-.006-.019-.01a.043.043 0 00-.015-.005c-.008-.002-.015-.009-.015-.014a.055.055 0 00-.007-.025.039.039 0 01.003-.032.258.258 0 00.003-.088l-.004-.069-.033.038c-.04.045-.075.062-.079.042-.001-.009-.008-.012-.016-.01-.01.006-.01 0 .008-.038.02-.042.02-.044.002-.05-.01-.004-.017-.01-.015-.015.008-.016-.013-.036-.036-.032-.011.001-.03 0-.042-.003-.01-.004-.023-.002-.027.003a.34.34 0 00-.028.06.182.182 0 01-.042.073c-.021.023-.021.024-.013.036.009.014-.003.056-.025.087a.206.206 0 01-.05.044l-.04.025-.012.044c-.02.064-.027.075-.05.091-.02.012-.023.008-.027-.023a.116.116 0 01.002-.05c.041-.08.041-.082.008-.08-.017.001-.03-.004-.029-.01.002-.006-.003-.01-.009-.01-.006 0-.015-.01-.021-.023-.006-.014-.021-.022-.04-.022-.023 0-.026-.003-.018-.027.005-.017.004-.03-.004-.033-.014-.007-.004-.028.042-.083.037-.044.088-.089.105-.09.006-.001.013-.007.014-.012.004-.014.035-.036.053-.039.018-.002.108-.09.102-.1-.001-.003.005-.004.015-.002.01.002.019.01.02.014 0 .008.001.007.005-.004a.029.029 0 01.024-.02.126.126 0 00.038-.019l.02-.014-.004-.015c-.003-.016.004-.036.012-.033.003.001.009-.003.014-.01.005-.007.001-.016-.006-.024l-.02-.013a.156.156 0 01.049-.007c.04-.003.054-.008.058-.019.006-.018.009-.017.02 0 .005.01.006.02.002.026-.004.004 0 .005.01 0 .009-.002.014 0 .01.005-.002.005.004.015.015.02.031.018.017.06-.031.086-.013.007-.018.013-.02.024 0 .01-.006.016-.026.022-.014.006-.03.007-.035.004-.01-.005-.036.015-.047.035-.003.006.015.007.043.002.035-.006.05-.006.051.006.003.007.008.015.014.014.006 0 .007.004.003.009-.011.014.003.04.016.03.007-.006.012-.004.013.002.001.006.01.014.02.018.009.003.02.01.026.012.016.011.017-.02.001-.042-.023-.03-.01-.04.017-.013.021.019.024.02.039.002.014-.017.017-.026.017-.047 0-.015-.004-.026-.009-.026-.005 0-.01-.007-.014-.017-.006-.018-.005-.02.014-.036.02-.017.027-.013.036.024.005.022.024.025.033.005.005-.009.01-.014.01-.01.001.003.016-.007.032-.023l.03-.028-.024-.005c-.012-.003-.022-.01-.02-.017.001-.007-.007-.014-.019-.017-.045-.008-.056-.042-.017-.05.01 0 .01-.003 0-.009-.01-.006-.01-.008.002-.01.008-.001.014-.006.016-.014.001-.006-.005-.008-.016-.002-.011.005-.013.003-.007-.006.009-.011.006-.013-.017-.012-.008 0-.012-.002-.009-.007.007-.015-.02-.027-.034-.014-.007.006-.015.001-.02-.015-.003-.013-.012-.025-.018-.024-.007 0-.008-.003-.004-.008.014-.016-.009-.03-.038-.026-.018.003-.03.008-.034.016-.005.01-.007.01-.004 0 .002-.011-.005-.01-.031-.002-.045.015-.064.03-.076.057-.005.012-.006.02-.002.02s.005.003.001.01c-.008.014-.01.014-.018 0-.003-.005-.002-.016.003-.024.004-.008.01-.017.012-.023a.111.111 0 01.024-.022c.02-.014.02-.015-.004-.011-.031.005-.056.021-.087.058-.026.028-.027.03-.027.05 0 .017.008.025.033.026.018.002.028.006.022.009-.014.006-.028.027-.018.026.003-.001-.004.01-.02.023-.012.013-.025.022-.028.02-.003-.004-.008 0-.013.013-.012.023-.025.029-.025.011-.002-.012 0-.016.012-.026.01-.01.013-.014.007-.023-.006-.009-.01-.008-.026.008-.027.026-.029.025-.017 0 .008-.015.006-.02-.003-.02-.013.002-.01-.012.006-.022.01-.005.007-.056-.003-.054-.003 0 .004-.01.018-.023.016-.015.027-.023.031-.02a.203.203 0 00.07-.05c.005-.008-.082.014-.095.024a.057.057 0 00-.02.031c-.01.029-.018.04-.039.054a.093.093 0 00-.03.034c-.014.022-.008.033.015.034.001 0 0 .004-.007.011-.004.006-.005.011 0 .01.012-.002-.008.019-.03.03a.052.052 0 00-.029.028c-.007.016-.01.018-.016.015-.004-.002-.003-.01.002-.016.005-.007.008-.018.007-.024-.002-.008 0-.012.004-.012a.063.063 0 00.018-.003c.01-.002.01-.002.009-.016-.002-.023-.016-.023-.042-.004-.021.017-.024.02-.015.018.014-.002.012.008-.01.028-.023.024-.1.03-.108.01-.004-.014-.05 0-.056.016-.002.004.009.002.022-.006.015-.008.027-.012.026-.01 0 .003-.012.01-.024.016a.06.06 0 00-.032.03.11.11 0 01-.018.026c-.005.004-.004 0 .001-.008.014-.023-.008-.026-.06-.012-.031.009-.04.009-.034.001a.063.063 0 01.021-.015c.02-.006.005-.017-.018-.01a.09.09 0 01-.04-.004c-.012-.006-.028-.004-.041.003-.013.007-.02.008-.02.002.002-.008 0-.007-.01.002-.018.019-.025.019-.021 0 .002-.012 0-.013-.011-.002a.137.137 0 01-.037.022.326.326 0 00-.094.05c-.013.013-.02.014-.032.011-.024-.006-.002-.026-.055-.009a.082.082 0 01-.022.004.113.113 0 00-.02.003.06.06 0 01-.015.003l-.014.008-.025.018a.625.625 0 00-.043.03 3.319 3.319 0 00-.087.107c.008-.009 0 .006-.012.021a.035.035 0 01-.013.01l-.037.046.014-.01c.011-.008.012-.007.003.005a1.122 1.122 0 00-.015.02.154.154 0 01-.034.028 4.766 4.766 0 00-.079.111c.005-.001.003.003-.006.017-.013.018-.012.02 0 .011.008-.004.013-.004.013 0s.002.004.005.001a.04.04 0 01.015-.012c.01-.004.009-.002-.01.02a.43.43 0 01-.048.05.8.8 0 00-.037.036c-.004.005-.008.008-.007.005 0-.002-.004.001-.012.007-.002.005-.006.01-.009.014a.371.371 0 01.02-.015.328.328 0 00.042-.033.265.265 0 01.029-.024c.003 0 .008-.006.01-.01A.178.178 0 01.9 6.144a.822.822 0 00.038-.033c.013-.014.015-.016.01-.014-.01.003.006-.017.02-.026a.129.129 0 00.017-.016.225.225 0 01.056-.049c.006-.001.006 0-.003.005-.013.01-.05.05-.044.048.003-.001.001.002-.007.01-.02.019-.002.01.02-.01a.16.16 0 01.028-.021c.006-.002.01-.007.016-.017.01-.017.014-.02.018-.008.001.004-.004.013.011.012.008 0-.006.028-.005.039.001.014.009.012.023-.006.005-.006.003-.002-.007.011-.015.022-.037.072-.03.07a.29.29 0 00.03-.062c.002-.004.004-.007.008-.008.002 0 .006-.006.01-.014s.005-.008.002 0a.07.07 0 01-.008.022l-.013.02c-.003.005-.004.01-.002.01.003-.001.008-.009.013-.018.005-.01.01-.014.01-.012.003.005-.016.037-.023.039-.004 0-.01.006-.014.012-.004.005-.004.007.001.004.004-.004.003.003-.003.015a.137.137 0 00-.012.036c0 .009.001.007.012-.01.006-.01.01-.018.007-.015-.004.003-.003-.003 0-.014.005-.018.006-.02.015-.021.005-.002.006.001.002.005-.009.01-.015.054-.005.046.004-.002-.002.009-.016.031-.025.039-.026.048 0 .02.011-.012.01-.01-.005.013-.016.02-.017.024-.009.018.007-.005.007 0 .001.015a.217.217 0 01-.011.025c-.011.015-.014.026-.005.024.006-.001.007.003.003.01-.005.01-.011.009-.019-.005 0-.002-.004 0-.008.006-.008.013.007.084.018.077.005-.004.008-.013.006-.024-.002-.02.007-.046.014-.047.003 0 .002.004-.001.01-.003.005-.003.012.001.014.008.007.005.023-.007.05-.008.02-.012.02-.028.005-.004-.004-.006-.004-.014.023a.512.512 0 01-.052.099c-.039.067-.08.133-.109.205a.076.076 0 01-.007.021c-.013.024-.019.062-.01.053.005-.005.003 0-.003.01a.218.218 0 00-.021.066.456.456 0 01-.014.056c-.002.005 0 .012.007.015.016.01.016.033-.005.11a.55.55 0 00-.018.101c.001.027 0 .032-.013.045-.015.015-.017.01-.002.069.002.01 0 .028-.005.04-.009.02-.006.104.003.092.008-.009.013-.04.007-.046-.003-.003 0-.026.007-.051a.548.548 0 00.013-.052c-.001-.004.002-.03.005-.059A.644.644 0 00.8 7.148c0-.007.006-.029.013-.049.015-.038.016-.038.024-.026.006.008.004.026-.004.055a.462.462 0 00-.013.103c0 .031 0 .061-.003.066a.574.574 0 000 .07c.003.071-.004.125-.023.154a.121.121 0 00-.014.033.179.179 0 00.023.085.095.095 0 01.015.024.255.255 0 00.034.053c.028.035.032.036.053.021.027-.017.034-.01.043.048.005.034.045.079.074.082.006 0 .01.007.009.011a.14.14 0 00.003.05c.003.02.003.049-.002.063-.005.016-.006.03-.003.03.02.008.03.03.025.047-.006.019-.005.019.016.027.008.002.018.015.023.027.011.027.027.03.03.007 0-.022.036-.06.043-.047a.268.268 0 01.004.062c-.002.054-.017.216-.041.225-.003.002-.008.014-.009.033 0 .02-.004.034-.008.033-.012-.002-.025.101-.017.137.003.015.01.026.017.027.015 0 .016.032 0 .053-.019.026-.007.096.025.139.012.017.037.07.056.118.02.049.047.114.063.146a.31.31 0 01.029.072c-.002.02.047.08.1.126.06.044.094.103.104.178.017.092.035.185.04.28 0 .03.004.06.008.069.004.009.005.018.001.022-.004.003 0 .022.008.048.016.046.02.095.013.17a.163.163 0 00.01.085c.006.018.012.038.01.044a.146.146 0 00.004.05.465.465 0 01.009.057c0 .014.002.017.009.015.005 0 .006-.015.003-.028-.003-.016 0-.026.005-.025.01.002.018.028.026.086l.006.042c.003.024 0 .03-.011.022-.009-.005-.021-.004-.027.004-.007.007-.007.013-.001.012.03.002.04.015.051.075 0 .002-.007-.005-.016-.015-.01-.01-.018-.016-.019-.013-.002.002.002.01.009.014.007.006.013.02.017.038.006.025.006.026.01.013.002-.009.005-.016.008-.015.008.001.011.042.005.05-.003.003 0 .006.007.006.01 0 .02.011.04.045.015.024.025.043.02.042-.004-.001-.003.004.002.01.003.007.015.01.023.009.01 0 .016.002.015.006 0 .004.004.009.01.01.005.002.009-.01.007-.024M.863 8.47a.051.051 0 00-.007-.02c-.003-.005-.005 0-.004.01.002.01.005.02.008.021.002 0 .004-.004.003-.01M.353 7.5c-.002-.002-.005.005-.01.018-.004.013-.005.02-.002.017a.047.047 0 00.01-.017.046.046 0 00.002-.018m1.15-1.986a.13.13 0 00.01.008c.01.01.046-.004.059-.023a.227.227 0 01.055-.044l.017-.01-.026.024-.026.024.013.001c.018.002.019.005.002.01-.01.004-.017.01-.02.015-.002.006.016.003.041-.004.024-.006.043-.01.04-.004-.003.004-.014.008-.024.01a.153.153 0 00-.043.014l-.026.015.004.009c.003.005.012.007.021.006.009-.002.014 0 .013.008-.004.014.082-.016.109-.039.01-.009.02-.011.026-.007.02.012.077-.012.065-.027-.002-.002.005-.007.015-.01a.237.237 0 00.018-.006l-.009-.01c-.005-.005-.013-.01-.019-.008-.005 0-.005-.012.003-.035.01-.03.013-.037.026-.048a.156.156 0 00.018-.021c.006-.01-.028.002-.038.014a.056.056 0 01-.021.014c-.012.003-.012.004-.02.026-.01.03-.023.037-.017.01.007-.022-.001-.021-.025 0-.012.009-.015.01-.012.001.002-.008-.003-.008-.02 0-.019.01-.022.01-.016 0 .006-.008.003-.01-.008-.004-.01.004-.014.004-.008-.004.01-.011-.004-.023-.021-.016a.195.195 0 01-.034.009.135.135 0 00-.04.015c-.013.008-.02.014-.02.018 0 .004-.01.015-.032.037l-.03.032m.136-.15l.016-.003a.05.05 0 00.028-.013c.006-.006.009-.007.007-.004-.003.004.004-.001.016-.012.013-.012.019-.015.014-.008-.007.013.028-.008.042-.027.018-.022-.032 0-.081.036l-.042.03m.062-.012c.01-.009.011-.01.004-.008a.047.047 0 00-.019.013c-.012.014-.002.01.015-.005m.067-.04c-.019.006-.028.012-.049.033l-.024.024.01-.002a.086.086 0 01.019-.003.053.053 0 00.022-.012c.006-.005.012-.006.012-.002 0 .005-.002.008-.01.01-.011.004-.012.005-.011.012.001.006.013.002.045-.016a.25.25 0 01.061-.027.103.103 0 00.057-.04c.005-.007-.002-.006-.015 0-.018.008-.021.006-.018-.006.005-.018.001-.019-.017-.003-.009.008-.011.013-.011.023 0 .013 0 .013-.017.018-.01.003-.02 0-.023-.005-.004-.005-.018-.007-.03-.003m.03-.048c.002.001.007 0 .01-.004.004-.004.003-.005-.002-.003s-.008.005-.007.007m.037-.002a.097.097 0 00.031-.018c.006-.007 0-.008-.015-.003a.072.072 0 00-.032.018c-.003.005.004.007.016.003m.03-.034c.02-.007.028-.011.025-.015-.002-.003-.005-.004-.006-.003l-.025.014c-.02.01-.02.011.006.004m.04.08c.012-.011.015-.017.007-.014-.004 0-.009.006-.011.01-.002.006 0 .007.005.003m.014.053c.006-.001.004.001-.003.01-.008.007-.014.01-.019.005-.004-.004-.01-.004-.014.002-.005.006-.005.012 0 .013.006.002.014.01.02.019.005.011.012.013.017.005a.047.047 0 01.023-.015c.02-.005.04-.034.026-.039-.01-.003-.01-.004.006-.02.014-.013.018-.017.013-.019-.003-.003-.027.004-.052.015-.016.007-.03.026-.017.024m.007-.096c-.002.005.001.008.007.007.007-.002.01 0 .008.006s.007.005.022-.003c.021-.01.023-.01.012.005-.01.014-.01.017.002.013a.092.092 0 00.056-.048c.009-.017.006-.019-.015-.013-.017.005-.025.009-.023.014 0 .012-.011.014-.015.004-.003-.005-.005-.004-.012.007-.008.013-.01.014-.017.004-.009-.01-.02-.008-.025.004m.01-.027c.007-.002.01-.004.008-.01-.001-.01-.007-.008-.012.003-.002.005 0 .008.004.007m.045-.06c.013-.003.014-.004-.003.008-.012.008-.006.008.017.002.017-.004.032-.006.03 0-.004.011.018.006.025-.005.009-.014 0-.026-.018-.025a.42.42 0 00-.034.001c-.012 0-.02.004-.025.012-.004.006 0 .008.008.007m.102.071c-.004-.01-.006-.008-.031.01l-.02.014.009.004c.018.013.05-.007.042-.028m.017-.03c.01-.002.02.001.02.008s-.001.014-.004.015c-.002 0-.005.006-.006.014-.003.01.017.008.095-.007a.736.736 0 00.12-.03.29.29 0 01.016-.011l-.004-.011c-.004-.008-.03-.005-.087.01-.07.018-.079.02-.082.006-.003-.009-.019-.015-.038-.014h-.04c-.003-.002-.011.002-.016.007-.011.013 0 .019.026.013m-.009-.046c.002 0 .004.003.004.006 0 .004.01.003.023-.001.021-.007.023-.008.007-.007-.011.001-.012-.003-.003-.014.008-.011.007-.014-.002-.012a.093.093 0 01-.023.001c-.007-.001-.014.003-.017.008-.006.01 0 .02.011.019m-.01-.052c0 .001.007 0 .011-.004.005-.003.004-.005-.003-.002-.007.001-.01.004-.009.006m.101.06l-.008.012c-.003.005-.004.01 0 .008.002 0 .006-.005.008-.01.002-.006.001-.01 0-.01m.005-.01c.01-.002.011-.004.01-.01-.002-.012-.014-.009-.017.004-.002.004.002.008.007.006m-.011-.063c.02-.006.022-.006.007.002-.023.014-.023.02-.003.026.013.004.03-.002.087-.031.012-.007.014-.006.006.001-.016.014-.013.02.01.013.012-.003.018-.003.014.001-.004.005-.005.01-.003.012.002.003-.01.006-.027.007-.02.001-.03.005-.026.01.004.004 0 .008-.02.017-.056.026-.033.028.062.007.115-.027.128-.029.112-.036-.011-.005-.01-.006.005-.016a.068.068 0 00.02-.019c.003-.005.015-.011.026-.013a.097.097 0 00.04-.022c.017-.016.017-.016.006-.015-.019.003-.01-.013.01-.019a.643.643 0 00.13-.058.65.65 0 01.068-.032c.017-.008.029-.016.027-.02-.001-.003.018-.014.043-.021a.146.146 0 00.051-.023c-.085-.034-.236.016-.316.042a.279.279 0 00-.07.031.047.047 0 01-.032.01.066.066 0 00-.036.01.241.241 0 01-.05.022c-.034.01-.046.02-.037.032.008.013.035.013.046-.001a.046.046 0 01.019-.014c.007-.002.006 0-.006.01-.01.01-.007.01.013.005.048-.013.075-.017.068-.009a.194.194 0 01-.055.017c-.035.007-.049.013-.052.021-.002.008-.005.01-.01.006-.004-.004-.012-.005-.016-.006l-.013-.002c-.014-.01-.04-.016-.05-.012-.029.009-.038.014-.04.022-.001.003-.009.009-.016.013a.07.07 0 00-.021.018c-.013.016 0 .022.029.013m.88-.324c-.004.01.035.008.04 0 .003-.005-.004-.009-.016-.007-.013.001-.024.005-.025.007m.755.751a.206.206 0 00-.062-.062c-.002 0-.006.005-.008.012-.001.005-.023.013-.047.017a.165.165 0 00-.057.015c-.009.007-.018.003-.022-.01-.007-.013-.016-.017-.03-.011-.03.013-.039.031-.012.03.02 0 .022.002.012.018-.01.015-.01.019 0 .019.014 0 .013.02-.001.028-.006.003.013.01.04.013.06.006.171-.018.187-.069m-.39.33c.003 0 .01-.006.014-.012.003-.008.003-.013-.002-.012-.003 0-.01.005-.014.012-.003.007-.003.013.001.013m-.012.19a.028.028 0 01.009-.025c.006-.005.01-.02.01-.031-.003-.028-.061-.026-.073.001-.004.01-.016.02-.026.02-.013 0-.02.008-.024.025-.002.014 0 .028.005.031.006.004.002.012-.012.028-.016.018-.018.022-.01.033.006.007.02.009.031.005.012-.006.032-.013.045-.017.025-.008.05-.047.045-.07m.204.068c.02-.02.015-.047-.006-.046-.01 0-.019-.014-.022-.032-.004-.016-.013-.034-.021-.037-.007-.004-.014-.02-.015-.033 0-.012-.008-.027-.016-.03-.014-.008-.014-.01 0-.031.027-.04.023-.056-.007-.05-.031.006-.034.003-.01-.022.014-.015.013-.017-.008-.017a.059.059 0 00-.032.01.258.258 0 00-.03.052c-.015.033-.016.042-.008.037.009-.006.01 0 .005.02-.004.015-.005.02 0 .011.013-.029.022-.017.012.018-.01.032-.009.033.014.027.02-.007.026-.005.024.009-.002.01 0 .02.005.019.004 0 .004.009 0 .02-.005.01-.017.019-.028.019-.017 0-.02.003-.013.02.006.018.005.021-.01.028-.011.004-.02.013-.022.02 0 .006.001.009.006.005.004-.003.019-.002.034.004.022.007.023.01.006.012a.103.103 0 00-.045.029c-.02.021-.022.025-.008.02a.274.274 0 01.065-.017l.073-.013a.487.487 0 00.037-.006c.006 0 .01-.008.008-.016-.002-.007.003-.02.013-.03m.215-1.253c.001.006.008.012.013.012.004 0 .007.005.004.01-.005.019.04.031.06.019a.038.038 0 01.032-.003c.013.007.01.01-.02.018-.031.008-.033.01-.016.018.013.005.016.009.007.01-.008 0-.001.01.018.021.03.02.032.02.038.002.003-.01.01-.02.015-.02.004 0 .014-.01.02-.023s.017-.023.023-.023c.018 0 .04.024.035.038-.006.018.056.019.065-.001.005-.007.005-.01 0-.008-.003.002-.02-.006-.04-.017a.3.3 0 00-.057-.03c-.012-.005-.025-.013-.027-.02a.008.008 0 00-.012-.003c-.004.003-.01 0-.013-.007-.004-.014-.033-.018-.035-.006a.103.103 0 000 .02c0 .004-.005.004-.01-.003-.016-.015-.104-.02-.1-.003m.212 0c.022.003.046.01.053.015.016.01.093-.015.085-.027-.006-.01-.089-.025-.093-.017a.141.141 0 01-.05 0c-.06-.006-.056.015.005.029m.696.067c0 .016.005.017.036.006l.03-.01-.032-.003c-.019-.001-.034.003-.034.007m.116.462c0 .006.003.014.007.018.01.01.033-.001.03-.015-.004-.014-.034-.017-.036-.003m.074-.081c.01.002.024.011.03.02.008.01.029.017.048.02.015 0 .022 0 .035.002a1.478 1.478 0 00-.029-.026.128.128 0 01-.034-.04c-.004-.02.047-.093.063-.09.006 0 .01-.004.01-.01 0-.01.033-.019.109-.029.023-.003.04-.01.038-.015-.004-.012-.046-.019-.061-.009-.007.003-.026.005-.043.003-.054-.006-.117.016-.13.045-.006.014-.016.025-.02.024-.007 0-.009.008-.007.017.003.009 0 .017-.004.016-.005 0-.011.01-.013.022-.003.012-.01.022-.018.02-.02-.001.005.026.026.03m-.002-.348c.004.014.01.015.017.002.004-.008.002-.01-.008-.011-.007-.002-.011.002-.009.009m.039-.005c.006.012.048.014.05.003 0-.002-.012-.008-.029-.01-.017-.003-.026 0-.021.006m.077.01a.038.038 0 00.021-.004c.01-.005.01-.007 0-.008a.038.038 0 00-.021.005c-.01.004-.009.006 0 .008m.555.144c.015.003.027.007.024.01-.003.012.02.027.068.044.042.017.044.016.035-.003-.008-.019-.012-.023-.031-.03-.012-.006-.023-.014-.026-.02-.007-.024-.077-.051-.086-.032-.004.006-.004.013 0 .014.002 0 .001.005-.004.009-.006.004 0 .006.02.008m.145.098l.045.007a.175.175 0 00.045.005c0-.008-.013-.018-.03-.024-.012-.004-.021-.01-.022-.014-.003-.015-.025-.01-.031.008l-.007.018m.281.19c-.006-.002-.007 0-.004.007.002.005.008.011.011.012.004.001.006-.003.005-.008a.018.018 0 00-.012-.012m.365.115c.016.014.085.036.083.027-.002-.01-.012-.018-.047-.035a.39.39 0 01-.043-.023.013.013 0 00-.012-.005c-.008.003 0 .02.02.036m.064.059c0 .004.002.008.011.015.018.015.031.019.022.007-.013-.016-.032-.03-.033-.022m.044-.018a.12.12 0 00.03.02l-.019-.02a.247.247 0 00-.01-.006c-.01-.004-.01-.003-.001.006m.493.915c.002.006.004.007.005.005.003-.006 0-.013-.004-.014-.002 0-.002.002 0 .009m0 .218a.113.113 0 01-.024-.026c-.027-.04-.03-.042-.02-.012.015.038.02.062.015.06-.007 0-.002.036.008.054.008.014.01.014.009.004 0-.01-.002-.013-.005-.014-.003 0-.005-.004-.005-.008-.002-.011.012-.009.025.005.009.01.012.008.01-.005 0-.01.003-.016.007-.015.013.002-.003-.035-.02-.043m.042.2a.432.432 0 00-.046-.11l.005.013c.005.008.005.01-.001.005-.009-.008-.005.01.01.05a.19.19 0 01.01.098c-.005.015-.006.015-.013-.003-.005-.017-.006-.017-.003-.004.011.056.01.065-.01.063-.018-.002-.027.017-.03.067-.003.024.003.045.009.037.002-.006.005 0 .011.026.013.047.023.046.017 0-.005-.033-.007-.038-.017-.05-.012-.016-.013-.03-.002-.02.004.004.006.002.003-.003-.001-.006.001-.011.006-.012.012 0 .015.008.007.02-.005.007-.003.016.002.028.007.016.008.016.01 0 0-.01.003-.014.006-.01.01.012.004-.014-.007-.032-.008-.015-.008-.018 0-.016.006 0 .01.006.015.02.008.026.018.026.014 0-.003-.018 0-.023.01-.022.008.002.015-.004.015-.011 0-.011.001-.012.007-.002.008.018.006-.002-.004-.036a.6.6 0 01-.025-.096m.023.949c-.019-.007-.037-.049-.034-.08a.202.202 0 00-.008-.052c-.008-.027-.011-.033-.021-.035-.008 0-.012.005-.01.016 0 .009.004.03.008.043.004.015.005.029.003.03-.002.003 0 .015.009.035.007.018.014.029.015.025.002-.003.004.002.007.013.003.012.007.019.013.018.005 0 .012.004.016.008.004.005.006.003.004-.005s.004-.002.013.01c.016.024.016.024.008.002-.005-.015-.013-.025-.023-.028m.022.064c0 .002.005.007.01.01.003.003.005.002.002-.004-.005-.011-.014-.015-.012-.006m.024.01c.006.012.008.02.006.024-.001.006 0 .013.008.027.008.016.009.016.006-.007-.006-.045-.012-.061-.021-.06-.007 0-.008.002.001.017m-.092.754c-.002.006.004.008.013.006.02-.005.023-.02.004-.017-.008 0-.016.006-.017.011m.093-.689c0 .009.002.014.004.01 0-.004.004 0 .007.006.002.008.006.01.006.006.001-.005-.003-.015-.008-.023-.01-.014-.01-.014-.009.001M7.101 8c-.007-.041-.015-.061-.027-.067-.007-.004-.007.001-.003.021.006.024.007.026.013.013.006-.013.006-.013.006.015 0 .023 0 .029.007.038.007.01.008.005.004-.02M7.043 7.9c.012.02.012.02.007-.002a.074.074 0 00-.014-.03c-.004-.004-.007-.002-.006.002a.179.179 0 00.014.03m-.007.116a.135.135 0 00.003-.045c-.003 0-.007.019-.01.041-.008.055-.002.059.007.004m-.12-.614l-.004.007a.122.122 0 00-.002.039.145.145 0 00.016.057l.011.024v-.024a.474.474 0 00-.02-.103m-.098-1.08a.203.203 0 00.024.068c.005.009.028.06.05.117.033.086.04.1.04.092 0-.006.004-.007.009-.002.008.008.006.005-.01-.019a.378.378 0 01-.021-.039c-.01-.022-.013-.05-.007-.048.008.002.005-.008-.007-.027a.883.883 0 01-.052-.106.247.247 0 00-.02-.04c-.013-.023-.016-.027-.011-.014.005.01.007.019.005.019m.092 2.32c.002.003.007 0 .01-.003.002-.003 0-.006-.006-.003-.005 0-.007.004-.004.007m-.053-.132c.01-.01.009-.017 0-.015-.004 0-.007.006-.007.011.001.006.004.008.007.004m-.029 0c.002 0 .004-.012.004-.026 0-.025-.004-.03-.012-.017-.004.007.002.045.008.043m-.008.17c.01 0 .027.003.037.006.025.007.079.001.08-.009.002-.005-.005-.01-.016-.011-.011-.001-.02-.009-.02-.019-.001-.011-.007-.014-.03-.007-.022.007-.035.006-.04-.003-.008-.017-.038-.013-.045.006-.007.018.009.036.034.037m-.124-.294c.001-.007-.001-.011-.004-.01-.003 0-.005.005-.005.011 0 .005.003.01.005.01 0 0 .003-.005.004-.011m.001.1c.003.003.005.002.007-.005.001-.006 0-.014-.002-.016-.002-.003-.005-.002-.007.005a.03.03 0 00.002.016m.022-.105a.13.13 0 00.005.041.408.408 0 01.008.067c0 .047.034.137.049.13.008-.003.014-.015.025-.053.013-.046.013-.05 0-.09a.125.125 0 01-.009-.057.047.047 0 00-.002-.034.419.419 0 01-.018-.035c-.004-.009-.01-.016-.013-.016-.004 0-.016-.025-.028-.055-.012-.031-.048-.058-.053-.057a.046.046 0 01-.022-.005c-.007-.003-.01 0-.009.007.002.007.031.043.045.079.014.036.023.07.022.078m.233.293c-.002 0-.005.005-.007.012 0 .005 0 .01.002.009.003 0 .006-.007.007-.012.002-.006 0-.01-.002-.009m.054-.227c0-.005.005-.018.012-.03a.189.189 0 00.018-.046c.005-.017.01-.027.018-.03.01-.005.018-.025.01-.024-.003 0-.005-.017-.006-.038-.002-.022 0-.04.002-.04s.004-.006.004-.01c0-.007 0-.011.003-.011.004-.002.005-.01.003-.018-.001-.008 0-.016.004-.018.007 0 .007-.001-.003-.012a.335.335 0 01-.022-.029c-.016-.025-.02-.02-.025.023-.002.02-.007.04-.01.04s-.008.014-.01.03a.204.204 0 01-.033.044.08.08 0 00-.022.035c-.002.014-.007.017-.018.014-.013-.002-.018.002-.022.014-.009.025-.015.085-.009.089.002.002.004.018.001.036-.003.026 0 .032.009.03.007-.002.011.001.01.006-.001.005.008.006.02.004.014-.004.022 0 .022.008.001.01.004.01.013 0a.145.145 0 00.03-.067m-.02.216c-.005-.001-.008.001-.008.007 0 .005-.003.009-.006.007-.004 0-.01.006-.013.014-.005.012-.004.013.004.005a.056.056 0 01.019-.012c.01-.001.013-.016.003-.021m.001.041l.006.014c.006.015.014.01.013-.008 0-.006-.004-.01-.01-.008l-.009.003m.112-.062a.164.164 0 00-.045.058c-.005.02-.003.018.022-.015a.143.143 0 01.026-.031.027.027 0 00.01-.013c.005-.01 0-.01-.013.001m.05-.337c-.01.015-.037.02-.043.007-.005-.009-.03.034-.035.058a.103.103 0 01-.009.029.263.263 0 00-.022.095c.002.008 0 .024-.007.046-.008.024-.008.03-.003.026a.18.18 0 00.02-.056.163.163 0 01.017-.046c.001.002.002.006.001.013a.212.212 0 00-.002.033c0 .016.003.018.008.01.01-.019.017-.018.007 0-.007.013-.008.027-.003.026.005-.001.011-.036.01-.048a.693.693 0 01-.001-.043v-.031l.018-.026c.015-.02.018-.025.011-.024a.063.063 0 00-.022.018c-.012.016-.014.015-.017-.001a.074.074 0 01.002-.035c.005-.015.01-.017.032-.017.021 0 .028-.005.038-.02.014-.025.014-.036 0-.014m0 .41l-.011.011c-.01.01-.01.012-.001.009.004 0 .01-.007.01-.012l.002-.008m.005-.254c.001-.007-.002-.01-.007-.008-.003 0-.007.005-.007.011 0 .005.003.009.006.007.003 0 .007-.006.008-.01m-.034-.412c-.001-.006-.006-.003-.01.006a.066.066 0 00-.006.036c.003.011.005.013.005.005 0-.007.004-.015.01-.017.007-.004.01 0 .016.02.007.029.016.04.026.039.006-.001.006-.007 0-.024-.006-.016-.006-.02 0-.015.004.002.008 0 .008-.005a.364.364 0 00-.03-.09.1.1 0 00-.007.027c-.004.028-.009.033-.012.018m.06.532a.06.06 0 00-.006.018c-.001.006 0 .004.005-.003a.06.06 0 00.006-.018c0-.002-.002-.001-.005.003m-.01-.135c0 .006.003.008.006.007a.024.024 0 01.016 0c.007.004.009.002.01-.01 0-.009-.005-.012-.016-.009-.01.002-.017.008-.017.013m.01-.087a.53.53 0 00.021-.07c-.001.008-.003.006-.002-.005 0-.015 0-.016-.004-.004a.557.557 0 00-.014.079m.04-.022c.002.002.005 0 .007-.002.001-.004 0-.006-.004-.004-.004.001-.006.004-.003.006m.251.16c0 .005.002.007.003.004.002-.003.001-.008 0-.01-.003-.003-.003-.003-.003.006m.361-.334a3.916 3.916 0 11-7.833 0 3.916 3.916 0 017.833 0M6.404 6.885c-.003 0-.003.004-.001.012.002.006.008.013.013.013.004 0 .004-.006 0-.012-.003-.007-.008-.013-.012-.013m-.106-.757l.001.038c.003.043-.01.1-.025.112-.009.008-.009.008.002.01.007.003.016-.006.022-.017.005-.012.012-.02.015-.02.01.001.01-.053-.002-.087a.241.241 0 00-.013-.036m-.486.319c.007.003.016.004.02.001.002-.003-.003-.006-.014-.007-.01 0-.013.001-.006.006m.025-1.075c.013.013.014.012.006 0-.01-.017-.03-.037-.025-.023a.12.12 0 00.019.023m-.073 1.051l-.019.009c-.023.01-.029.021-.022.043.008.026.015.023.016-.005 0-.014.008-.025.018-.024.009 0 .014-.005.012-.011-.002-.008-.004-.013-.005-.012m.088.19c-.01 0-.017.004-.017.012 0 .007.007.013.016.014.01 0 .017-.006.017-.012 0-.007-.007-.013-.016-.013M5.55 5.408c0 .013.002.016.007.017.004 0 .008.009.01.016.002.012.005.015.008.013.004-.003 0-.017-.006-.033-.013-.033-.018-.036-.019-.013m.327-.062c-.002 0-.002.003 0 .01l.01.012c.003 0 .002-.004 0-.01-.003-.006-.007-.01-.01-.012m.03 1.027c-.003 0 0 .007.006.013a.066.066 0 00.02.014c.003 0 0-.006-.007-.013a.07.07 0 00-.02-.014M2.474 4.991c.01-.012.007-.01-.017.004l-.018.011.013-.001a.04.04 0 00.022-.013M1.77 6.57c.023 0 .041-.006.05-.018.015-.016.019-.04.004-.024-.004.004-.02.01-.037.012-.047.01-.059.03-.017.03m-.281-.84l-.03.029-.029.028c.004 0 .007 0 .011-.002a.046.046 0 00.02-.014.05.05 0 01.017-.012c.004 0 .001.004-.005.012-.007.008-.003.006.01-.007a.234.234 0 01.038-.026c.027-.012.035-.031.009-.021-.017.006-.02.006-.009-.002.023-.018-.006-.009-.055.018-.015.01-.023.013-.038.022l.03-.013.03-.012m.066.59c-.013.015-.015.02-.007.019.004-.001.013-.01.018-.019a.062.062 0 00.007-.018.122.122 0 00-.018.019m-.032-.086c-.009.016-.017.056-.01.049a.084.084 0 00.011-.033c.003-.015.002-.022-.001-.016m.074-.102c-.001.002-.007.004-.014.008a.04.04 0 00-.017.015.093.093 0 00-.008.06c.003.008 0 .027-.006.043-.01.023-.01.025 0 .01a.274.274 0 00.03-.08l.015-.056m-.055.023c-.015.02-.019.026-.015.031.002.004 0 .011-.005.018-.005.005-.008.013-.007.018.001.003.007-.005.015-.02a.62.62 0 00.023-.05c.008-.021.008-.021-.01.003m.042-.14c.002 0-.003.008-.013.017-.01.011-.014.018-.01.018a.32.32 0 00.055-.062c.008-.015-.003-.009-.02.01-.008.01-.014.017-.012.017m-.083-.17c-.004-.005-.005-.003-.008.007-.003.011-.009.018-.033.037a.913.913 0 00-.028.021l.023-.003a.114.114 0 00.038-.015l.04-.031a.183.183 0 01.033-.023c.004 0 .012-.006.016-.012.015-.017-.005-.01-.031.012-.024.02-.042.022-.05.008m.029.097a.076.076 0 00-.036.02c-.023.021-.023.021.02-.003.031-.019.032-.02.016-.017m.226-.168c.007-.013-.007-.01-.018.003-.005.006-.007.012-.005.015.003.005.014-.003.023-.018m-.135.701a.643.643 0 00-.08.162c0 .023.03-.016.055-.068a.194.194 0 01.054-.078c.038-.037.039-.038.042-.008.002.02 0 .026-.011.039a.122.122 0 00-.022.029c-.002.005.002.004.009-.003.011-.012.014-.01.013.012l-.003.028.028-.043a.52.52 0 00.031-.054c.002-.005.006 0 .009.01.008.028.025.002.02-.03-.004-.027-.02-.035-.024-.012-.001.005-.005.012-.008.012-.004 0-.004-.005-.001-.011.013-.027-.084-.013-.111.015m0-.068c.015-.009.024-.012.019-.005-.011.015.004.027.036.027h.027l.01-.034c.007-.018.008-.031.003-.028-.006.003-.01-.002-.011-.01-.003-.03-.023-.027-.084.016l-.064.048c-.013.013.039.002.065-.014m.075-.113c.008-.015.004-.026-.006-.016-.013.013-.017.028-.009.027.005 0 .012-.005.015-.01m-.039.32c-.026.01-.037.03-.017.03a.272.272 0 00.1-.053c.013-.016.003-.013-.083.022m.74-.501c.005 0 .016-.006.02-.012.01-.014.01-.014-.014 0-.014.01-.016.012-.006.012m-.258.116c.004 0 .01-.009.014-.019.009-.018.004-.024-.01-.01-.009.01-.012.03-.004.03m.168-.127c.003 0 .007-.006.008-.013.001-.007-.002-.012-.005-.012-.004 0-.007.005-.009.013 0 .006.002.012.006.012m.094-1.065c.004-.003.002-.006-.004-.003-.006 0-.008.004-.006.006.001.003.007 0 .01-.003m-.483.554c.004-.007.004-.01 0-.01-.001 0-.006.005-.008.011-.001.005-.002.01 0 .01a.036.036 0 00.008-.011m.154 4.4c.005-.008.008-.017.005-.02-.006-.006-.02.014-.016.027.001.006.006.002.011-.006m.238-4.905c.02-.004.035-.018.027-.026-.007-.006-.008-.005-.011.005-.002.005-.011.013-.02.017-.012.006-.01.006.004.004m-.27 1.13c-.006.001-.016.008-.021.015-.017.02-.012.022.01.003.018-.015.018-.017.01-.017m-.017-.557c.003.004.006.003.008-.005.004-.015-.01-.023-.018-.01-.003.006-.003.01 0 .01.002-.001.007.001.01.005m.142-.227c-.007.002-.011.004-.01.007.002.001.009 0 .014-.002.005-.004.003-.006-.004-.005m.178-.063c.013-.002.024-.006.027-.01a.047.047 0 01.016-.014c.007-.004.004-.005-.007-.005-.01.001-.022 0-.025-.004-.004-.002-.006-.002-.007.003a.053.053 0 01-.014.022c-.008.009-.005.012.01.008m.128.034a.05.05 0 00.017-.011c.004-.009-.014-.003-.022.007-.005.006-.003.008.005.004m-.073.183a.128.128 0 01.023-.01c.008 0 .008-.002.003-.01-.01-.013-.02-.01-.03.01-.007.012-.006.016.004.01m1.967.048c-.004 0-.007.006-.007.013 0 .007.005.009.008.006.005-.004.007-.01.007-.014 0-.002-.004-.005-.008-.005m.003-.269c-.006 0-.01.005-.01.012 0 .006.004.012.007.012.004 0 .009-.005.01-.011.002-.007-.002-.013-.007-.013m.405 3.317a.216.216 0 01.043-.007c.009-.002.014-.006.009-.01-.003-.004.005-.027.018-.05.021-.038.023-.045.008-.05-.028-.012-.07-.007-.08.008a.218.218 0 00-.016.065c-.008.047-.007.05.018.044m-.335-3.033c-.002 0-.003.006-.002.013 0 .008-.004.011-.01.008-.007-.004-.013 0-.014.01-.001.01-.006.016-.01.01-.005-.003-.01 0-.012.007-.002.006.001.012.008.012.02 0 .048-.025.046-.044-.001-.009-.003-.016-.006-.016m-3.486.419c-.004 0-.01.006-.016.012-.01.013-.007.011.01-.004.012-.01.013-.01.006-.008m3.03-.274a.088.088 0 00-.015.023c0 .01.032-.004.038-.017.007-.018-.008-.023-.023-.006m2.845.842c.002 0 .002-.005.001-.01-.001-.007-.004-.012-.007-.012-.004-.001-.005.003-.003.01.003.006.006.011.008.012m-2.5-.956a.02.02 0 00.005.02c.004.004.008 0 .007-.01-.002-.023-.006-.027-.012-.01m.509 3.34c0-.016-.003-.03-.007-.033-.004-.004-.01.022-.01.056l-.003.08a.08.08 0 00.01.037c.01.016.012.01.015-.04a.243.243 0 00-.002-.067.069.069 0 01-.003-.034m.104-.635c-.001.02.005.044.016.052.015.016.016.016.005-.001a.173.173 0 01-.014-.053c-.001-.013-.004-.02-.007-.033 0 .014.002.021 0 .035m.016-.374c.006-.004.01-.01.01-.015-.001-.002-.006-.005-.012-.005-.005 0-.01.007-.009.015 0 .007.006.01.011.005m-1.596.187c-.009-.004-.017-.006-.018-.003a.07.07 0 00.016.022c.01.01.017.011.018.002 0-.006-.007-.016-.016-.021m-.005.06c-.004.007-.002.014.003.014.008 0 .014-.007.015-.014 0-.008-.002-.014-.004-.014-.004 0-.01.006-.014.014m.623-.329c-.035-.016-.038-.013-.02.024.011.023.05.024.05 0 0-.003-.013-.014-.03-.024m1.48-2.547c-.002 0-.001.005 0 .011.003.006.008.012.011.013.003 0 .002-.005-.001-.011a.04.04 0 00-.01-.013m-3.735 5.19c0 .005.003.01.006.01.005.001.007-.003.005-.007-.002-.007-.005-.01-.006-.01-.002-.001-.004.002-.005.007m-.067-.152c-.004 0-.004.003 0 .01l.011.011v-.01a.018.018 0 00-.011-.01m-.189-1.187c.004.008.013.02.022.023.013.006.013.004.001-.015-.016-.024-.03-.03-.023-.008m-.107-1.19c-.01.013-.014.052-.006.053.003 0 .01-.006.015-.016.011-.02.003-.055-.01-.037m-.302-1.36c.003-.005.006-.014.005-.018 0-.002-.003-.001-.007.006a.037.037 0 00-.005.018c.001.003.004.002.007-.005m-.004 1.246c-.009-.002-.01 0-.005.02.003.022.016.019.016-.006 0-.007-.005-.014-.01-.015m.706 2.69c-.009.01-.008.012.005.01.008-.002.015-.006.016-.01.001-.012-.011-.012-.021 0M2.79 5.42c.004-.003.002-.006-.006-.005-.006 0-.01.004-.006.007.003.004.009.002.012-.002m.163 6.257c-.005 0-.006.001-.001.005.004.004.009.004.01.002.001-.003-.003-.006-.009-.007m-.327-6.603l.003.01c.003.002.008 0 .01-.006.003-.007.002-.01-.002-.01-.005 0-.01.003-.01.006m1.006-.16c.007-.004.013-.009.013-.011.003-.01-.016-.005-.021.006-.004.006 0 .008.008.004M6.78 7.92c.004.003.004-.002 0-.01-.01-.021-.013-.024-.01-.008a.04.04 0 00.01.018M3.367 5.302c.006-.003.01-.01.01-.016-.002-.014-.005-.013-.013.006-.006.012-.005.016.003.01m10.977 2.865c0 4.706-3.733 8.167-8.469 8.167h-4.9v-3.267h4.9a4.886 4.886 0 004.884-4.9c0-2.706-2.177-4.9-4.884-4.9h-4.9V0h4.9c4.736 0 8.469 3.46 8.469 8.167"/>
</svg>
